<svg xmlns="http://www.w3.org/2000/svg" xmlns:xlink="http://www.w3.org/1999/xlink" xmlns:lucid="lucid" width="1760" height="669.29"><g transform="translate(-120 -246.0395141040383)" lucid:page-tab-id="0_0"><path d="M360 360h1120v340H360z" stroke="#000" stroke-width="2" fill="none"/><path d="M360 360h160v340H360z" fill="none"/><path d="M381.33 360h21.34m10.66 0h21.34m10.66 0h21.34m10.66 0h21.34m10.66 0H520v10.3m0 10.3v20.6m0 10.32v20.6m0 10.3v20.6m0 10.3v20.62m0 10.3v20.6m0 10.3v20.62m0 10.3v20.6m0 10.3v20.62m0 10.3v20.6m0 10.3v20.6m0 10.32V700h-10.67m-10.66 0h-21.34m-10.66 0h-21.34m-10.66 0h-21.34m-10.66 0h-21.34m-10.66 0H360v-10.3m0-10.3v-20.6m0-10.32v-20.6m0-10.3v-20.6m0-10.3v-20.62m0-10.3v-20.6m0-10.3v-20.62m0-10.3v-20.6m0-10.3V442.4m0-10.3v-20.6m0-10.3v-20.6m0-10.32V360h10.67" stroke="#000" stroke-width="2" fill="none"/><path d="M520 360h320v340H520z" fill="none"/><path d="M539.4 360h19.4m9.68 0h19.4m9.7 0h19.4m9.7 0h19.38m9.7 0h19.4m9.7 0h19.38m9.7 0h19.4m9.7 0h19.38m9.7 0h19.4m9.7 0h19.4m9.68 0h9.7v10.3m0 10.3v20.6m0 10.32v20.6m0 10.3v20.6m0 10.3v20.62m0 10.3v20.6m0 10.3v20.62m0 10.3v20.6m0 10.3v20.62m0 10.3v20.6m0 10.3v20.6m0 10.32V700h-9.7m-9.7 0h-19.4m-9.68 0h-19.4m-9.7 0h-19.4m-9.7 0h-19.38m-9.7 0h-19.4m-9.7 0h-19.38m-9.7 0h-19.4m-9.7 0H597.6m-9.7 0h-19.4m-9.7 0h-19.4m-9.68 0H520v-10.3m0-10.3v-20.6m0-10.32v-20.6m0-10.3v-20.6m0-10.3v-20.62m0-10.3v-20.6m0-10.3v-20.62m0-10.3v-20.6m0-10.3V442.4m0-10.3v-20.6m0-10.3v-20.6m0-10.32V360h9.7M1340 359v-20.5M1340 358.97V360" stroke="#000" stroke-width="2" fill="none"/><path d="M1340 323.24l4.64 14.26h-9.28z" stroke="#000" stroke-width="2"/><path d="M520 358v-19.5" stroke="#000" stroke-width="2" fill="none"/><path d="M521 359h-2v-1.03h2z"/><path d="M520 323.24l4.64 14.26h-9.28z" stroke="#000" stroke-width="2"/><path d="M490.55 266.04h59.7v44.1h-59.7z" fill="#fff" fill-opacity="0"/><path d="M507.8 283.65l1.37 7.12c5.5-9.13 7.9-13.8 7.9-16.64 0-.9-.46-1.3-1.7-2.07-1.28-.84-1.67-1.5-1.67-2.52 0-1.43 1.1-2.4 2.6-2.4 1.93 0 3.35 1.62 3.35 3.56 0 3.7-3.1 10.82-8.48 19.75-6.73 11.14-13.66 18.58-17.35 18.58-1.94 0-3.3-1.1-3.3-2.78 0-1.43 1.1-2.6 2.52-2.6 2.27 0 2.27 1.82 3.95 1.82.83 0 1.6-.52 3.1-2.14 1.17-1.23 4.08-5.05 4.6-5.9.4-.76.65-1.54.65-2.25 0-2.6-3.57-17.1-5.3-21.5-1.24-3.17-2.4-4.14-5-4.14-.7 0-1.3.06-2 .26v-1.1c.7-.13 1.42-.26 2.07-.4 1.3-.25 3.43-.64 6.92-1.16h.26c.97 0 4.4 10.75 5.5 16.5M542.62 290.34c0 7.87-2.9 15.75-10.35 15.75-7.83 0-10.35-8.53-10.35-16.04 0-8.1 3.16-15.56 10.53-15.56 6 0 10.17 6.45 10.17 15.84m-4.4.23c0-9.53-2-14.88-6.04-14.88-3.8 0-5.86 5.4-5.86 14.68 0 9.3 2 14.52 5.95 14.52 3.9 0 5.95-5.27 5.95-14.33"/><path d="M810.55 266.04h59.7v44.1h-59.7z" fill="#fff" fill-opacity="0"/><path d="M827.8 283.65l1.37 7.12c5.5-9.13 7.9-13.8 7.9-16.64 0-.9-.46-1.3-1.7-2.07-1.28-.84-1.67-1.5-1.67-2.52 0-1.43 1.1-2.4 2.6-2.4 1.93 0 3.35 1.62 3.35 3.56 0 3.7-3.1 10.82-8.48 19.75-6.73 11.14-13.66 18.58-17.35 18.58-1.94 0-3.3-1.1-3.3-2.78 0-1.43 1.1-2.6 2.52-2.6 2.27 0 2.27 1.82 3.95 1.82.83 0 1.6-.52 3.1-2.14 1.17-1.23 4.08-5.05 4.6-5.9.4-.76.65-1.54.65-2.25 0-2.6-3.57-17.1-5.3-21.5-1.24-3.17-2.4-4.14-5-4.14-.7 0-1.3.06-2 .26v-1.1c.7-.13 1.42-.26 2.07-.4 1.3-.25 3.43-.64 6.92-1.16h.26c.97 0 4.4 10.75 5.5 16.5M858.86 305.45h-12.63v-.7c3.38-.17 4.34-1.14 4.34-3.65v-20.56c0-1.56-.4-2.24-1.37-2.24-.46 0-1.23.23-2.06.55l-1.23.45v-.64l8.2-4.16.4.13v27.34c0 1.96.93 2.8 4.36 2.8v.68"/><path d="M1304.25 269.42h59.7v44.1h-59.7z" fill="#fff" fill-opacity="0"/><path d="M1321.5 287.04l1.37 7.12c5.5-9.13 7.9-13.8 7.9-16.64 0-.9-.46-1.3-1.7-2.07-1.28-.84-1.67-1.5-1.67-2.53 0-1.42 1.1-2.4 2.6-2.4 1.93 0 3.35 1.63 3.35 3.57 0 3.68-3.1 10.8-8.48 19.74-6.73 11.13-13.66 18.58-17.35 18.58-1.94 0-3.3-1.1-3.3-2.8 0-1.4 1.1-2.58 2.52-2.58 2.27 0 2.27 1.82 3.95 1.82.84 0 1.6-.52 3.1-2.14 1.17-1.23 4.08-5.05 4.6-5.9.4-.77.65-1.55.65-2.26 0-2.6-3.56-17.1-5.3-21.5-1.24-3.17-2.4-4.14-5-4.14-.7 0-1.3.07-2 .26v-1.1c.7-.13 1.42-.26 2.07-.4 1.3-.25 3.43-.63 6.92-1.15h.26c.97 0 4.4 10.74 5.5 16.5M1355.58 303.47l.64.6c-3.1 4.26-4.25 5.17-6.4 5.17-1.15 0-2.16-.73-2.16-2.47 0-.46.1-1.05.74-3.43l2-7.42c.38-1.42.65-3.07.65-3.62 0-.82-.4-1.32-1.1-1.32-1.83 0-3.9 2.24-6.77 6.5-2.06 3.06-2.43 4.12-4.58 11.35h-3.43l4.4-16.02c.04-.22.08-.5.08-.77 0-.92-.64-1.2-2.97-1.24v-.74c3.7-.73 5-.9 7.4-1.42l.2.1-3.07 9.97c4.6-7.3 7.65-10.06 10.58-10.06 1.97 0 2.98 1.15 2.98 2.8 0 .82-.18 1.78-.46 2.74l-2.56 9.3c-.46 1.64-.64 2.42-.64 2.8 0 .4.18.8.73.8.64 0 1.46-.72 2.8-2.4l.95-1.2"/><path d="M407.87 512.9h64.26V557h-64.26z" fill="#fff" fill-opacity="0"/><path d="M426.6 520.05l.83 3.96c4.86-7.42 7.43-9.92 10.5-9.92 1.66 0 2.84 1.04 2.84 2.57 0 1.46-.98 2.5-2.36 2.5-1.3 0-1.94-1.18-3.6-1.18-1.26 0-3.76 3.05-6.82 8.4 0 .5.14 1.46.56 3.13l2.22 9.3c.5 1.96 1.1 2.86 2.1 2.86.9 0 1.65-.7 3.25-2.78.64-.83.92-1.25 1.47-1.95l1.04.63c-4.02 6.25-5.82 7.92-8.46 7.92-2.23 0-3.27-1.25-4.1-4.72l-2.02-8.27-6.1 8.26c-3.07 4.1-4.46 4.72-6.6 4.72-2.16 0-3.48-1.1-3.48-2.92 0-1.4.97-2.5 2.36-2.5.62 0 1.32.28 2.22.77.7.4 1.4.62 1.8.62.77 0 2.1-1.32 3.55-3.4l5.7-8.06-1.95-8.63c-.97-4.17-1.46-4.72-3.2-4.72-.55 0-1.38.14-2.7.48l-1.25.35-.2-1.1.75-.3c4.24-1.52 6.53-2 8.13-2 1.74 0 2.57 1.25 3.54 5.97M463.95 538.97c0 8.45-3.1 16.9-11.1 16.9-8.4 0-11.1-9.14-11.1-17.2 0-8.7 3.38-16.7 11.3-16.7 6.43 0 10.9 6.93 10.9 17m-4.72.24c0-10.2-2.16-15.95-6.48-15.95-4.08 0-6.3 5.8-6.3 15.77 0 9.97 2.17 15.57 6.4 15.57 4.17 0 6.38-5.66 6.38-15.4"/><path d="M647.36 512.9h65.28V557h-65.28z" fill="#fff" fill-opacity="0"/><path d="M666.38 520.17l.85 4.02c4.94-7.56 7.55-10.1 10.66-10.1 1.68 0 2.88 1.05 2.88 2.6 0 1.5-1 2.55-2.4 2.55-1.34 0-1.98-1.2-3.67-1.2-1.26 0-3.8 3.1-6.9 8.54 0 .48.13 1.47.56 3.16l2.26 9.46c.5 1.98 1.13 2.9 2.1 2.9.93 0 1.7-.7 3.33-2.83.64-.86.92-1.28 1.48-1.98l1.06.63c-4.1 6.35-5.94 8.05-8.62 8.05-2.26 0-3.32-1.27-4.16-4.8l-2.05-8.4-6.2 8.4c-3.12 4.16-4.53 4.8-6.72 4.8-2.18 0-3.52-1.13-3.52-2.97 0-1.4.98-2.54 2.4-2.54.63 0 1.34.27 2.25.77.7.42 1.42.63 1.84.63.78 0 2.12-1.34 3.6-3.46l5.8-8.18-2-8.75c-.98-4.23-1.47-4.8-3.24-4.8-.56 0-1.4.15-2.75.5l-1.27.35-.2-1.13.76-.28c4.3-1.55 6.64-2.04 8.26-2.04 1.77 0 2.6 1.27 3.6 6.07M700.24 555.85h-13.78v-.75c3.7-.2 4.74-1.25 4.74-4v-22.4c0-1.7-.45-2.44-1.5-2.44-.5 0-1.34.25-2.24.6l-1.35.5v-.7l8.95-4.55.44.16v29.8c0 2.14 1 3.04 4.74 3.04v.75"/><path d="M1120 360h220v340h-220z" fill="none"/><path d="M1140.95 360h20.95m10.48 0h20.95m10.48 0h20.96m10.48 0h20.95m10.47 0h20.95m10.48 0h20.95m10.47 0H1340v10.3m0 10.3v20.6m0 10.32v20.6m0 10.3v20.6m0 10.3v20.62m0 10.3v20.6m0 10.3v20.62m0 10.3v20.6m0 10.3v20.62m0 10.3v20.6m0 10.3v20.6m0 10.32V700h-10.48m-10.47 0h-20.95m-10.48 0h-20.95m-10.48 0h-20.96m-10.48 0h-20.95m-10.47 0h-20.95m-10.48 0h-20.95m-10.47 0H1120v-10.3m0-10.3v-20.6m0-10.32v-20.6m0-10.3v-20.6m0-10.3v-20.62m0-10.3v-20.6m0-10.3v-20.62m0-10.3v-20.6m0-10.3V442.4m0-10.3v-20.6m0-10.3v-20.6m0-10.32V360h10.48" stroke="#000" stroke-width="2" fill="none"/><path d="M1200 512.9h64.62V557H1200z" fill="#fff" fill-opacity="0"/><path d="M1218.83 520.1l.84 3.97c4.9-7.47 7.47-10 10.55-10 1.67 0 2.86 1.06 2.86 2.6 0 1.47-.98 2.5-2.37 2.5-1.32 0-1.95-1.17-3.63-1.17-1.25 0-3.77 3.07-6.84 8.45 0 .5.14 1.47.56 3.14l2.22 9.36c.5 1.95 1.12 2.86 2.1 2.86.9 0 1.67-.7 3.28-2.8.63-.83.9-1.25 1.47-1.95l1.05.63c-4.06 6.3-5.87 7.96-8.53 7.96-2.24 0-3.3-1.25-4.13-4.75l-2.03-8.3-6.14 8.3c-3.08 4.13-4.48 4.76-6.64 4.76-2.17 0-3.5-1.1-3.5-2.93 0-1.4.98-2.52 2.38-2.52.63 0 1.33.3 2.24.78.7.42 1.4.63 1.8.63.78 0 2.1-1.32 3.58-3.4l5.73-8.12-1.97-8.66c-.98-4.2-1.47-4.75-3.22-4.75-.54 0-1.38.14-2.7.5l-1.27.34-.2-1.1.76-.3c4.25-1.53 6.56-2.02 8.17-2.02 1.74 0 2.58 1.26 3.56 6M1255.6 549.64l.7.64c-3.37 4.6-4.6 5.58-6.92 5.58-1.24 0-2.32-.8-2.32-2.67 0-.5.1-1.14.8-3.7l2.16-8c.4-1.55.7-3.32.7-3.92 0-.9-.45-1.43-1.2-1.43-1.97 0-4.2 2.42-7.3 7.02-2.23 3.3-2.62 4.44-4.95 12.25h-3.7l4.74-17.3c.06-.24.1-.54.1-.83 0-1-.68-1.3-3.2-1.35v-.8c4-.78 5.38-.98 8-1.52l.2.1-3.3 10.77c4.93-7.9 8.24-10.87 11.4-10.87 2.13 0 3.2 1.24 3.2 3 0 .9-.18 1.94-.48 2.98l-2.77 10.04c-.5 1.78-.7 2.62-.7 3 0 .46.2.9.8.9.7 0 1.58-.8 3-2.62.36-.4.7-.84 1.05-1.28"/><path d="M920 484.94h120v80H920z" stroke="#000" stroke-opacity="0" stroke-width="2" fill="#fff" fill-opacity="0"/><use xlink:href="#a" transform="matrix(1,0,0,1,925,489.94099880253157) translate(32.77777777777777 45.66666666666667)"/><path d="M160 504.94h180v60H160z" stroke="#000" stroke-opacity="0" stroke-width="2" fill="#fff" fill-opacity="0"/><use xlink:href="#b" transform="matrix(1,0,0,1,165,509.94099880253157) translate(3.666666666666657 33)"/><path d="M140 704.25h180v71.5H140z" stroke="#000" stroke-opacity="0" stroke-width="2" fill="#fff" fill-opacity="0"/><use xlink:href="#c" transform="matrix(1,0,0,1,145,709.25) translate(77.55555555555554 39)"/><path d="M506.3 724.1h37.42v37.8H506.3z" fill="#fff" fill-opacity="0"/><path d="M521.42 731l-.25 1.63h-4.3l-4.44 16.76c-.05.2-.1.55-.1.7 0 .67.3.82.77.82.8 0 1.63-.8 4.13-4.03l.67.34c-3.07 4.7-4.65 6.2-7.3 6.2-1.4 0-2.36-.63-2.36-1.9 0-.56.4-2.15.82-3.78l3.98-15.13h-3.83c-.04-.15-.04-.3-.04-.3 0-.57.46-1.03 1.7-1.28 1.62-.36 4.94-2.86 6.78-5.62.2-.3.5-.46.72-.46.3 0 .46.15.46.4 0 0 0 .26-.05.36l-1.43 5.27h4.08M537.7 748.64c0 6.2-2.28 12.43-8.17 12.43-6.18 0-8.16-6.72-8.16-12.65 0-6.4 2.5-12.28 8.3-12.28 4.74 0 8.03 5.1 8.03 12.5m-3.47.18c0-7.52-1.6-11.74-4.77-11.74-3 0-4.63 4.26-4.63 11.6 0 7.33 1.6 11.45 4.7 11.45 3.07 0 4.7-4.16 4.7-11.3"/><path d="M826.3 724.1h37.93v37.8H826.3z" fill="#fff" fill-opacity="0"/><path d="M841.63 731.1l-.26 1.65h-4.35l-4.5 16.98c-.06.2-.1.57-.1.73 0 .67.3.83.77.83.82 0 1.64-.84 4.18-4.1l.68.36c-3.1 4.76-4.72 6.27-7.4 6.27-1.4 0-2.4-.63-2.4-1.92 0-.56.42-2.17.84-3.82l4.04-15.33h-3.9c-.04-.16-.04-.3-.04-.3 0-.58.47-1.05 1.7-1.3 1.67-.37 5.03-2.9 6.9-5.7.2-.32.5-.47.72-.47.3 0 .47.15.47.4 0 0 0 .27-.06.37l-1.45 5.34h4.13M855.12 761.06h-10.1v-.55c2.7-.14 3.47-.9 3.47-2.92v-16.45c0-1.24-.34-1.8-1.1-1.8-.37 0-1 .2-1.65.45l-1 .37v-.52l6.56-3.33.34.1v21.87c0 1.58.73 2.24 3.48 2.24v.56"/><path d="M1323.43 724.1h37.6v37.8h-37.6z" fill="#fff" fill-opacity="0"/><path d="M1338.63 731.03l-.26 1.64h-4.3l-4.48 16.84c-.06.22-.1.58-.1.73 0 .67.3.82.76.82.82 0 1.64-.82 4.16-4.05l.66.36c-3.08 4.72-4.67 6.2-7.34 6.2-1.38 0-2.36-.6-2.36-1.9 0-.56.4-2.15.82-3.8l4-15.2h-3.84c-.05-.14-.05-.3-.05-.3 0-.56.47-1.02 1.7-1.28 1.64-.36 4.98-2.88 6.83-5.65.2-.3.5-.46.72-.46.3 0 .46.15.46.4 0 0 0 .27-.04.37l-1.44 5.3h4.1M1354.4 756.5l.5.46c-2.46 3.38-3.37 4.1-5.08 4.1-.9 0-1.7-.58-1.7-1.96 0-.36.07-.83.58-2.72l1.6-5.88c.3-1.13.5-2.43.5-2.87 0-.65-.32-1.05-.87-1.05-1.45 0-3.08 1.78-5.37 5.15-1.63 2.44-1.92 3.27-3.63 9h-2.72l3.5-12.7c.03-.18.06-.4.06-.62 0-.7-.5-.93-2.36-.97v-.58c2.95-.58 3.96-.72 5.9-1.12l.13.07-2.43 7.9c3.63-5.8 6.06-7.97 8.4-7.97 1.55 0 2.35.9 2.35 2.2 0 .66-.15 1.43-.37 2.2l-2.03 7.36c-.36 1.3-.5 1.9-.5 2.2 0 .33.14.66.57.66.5 0 1.16-.58 2.22-1.93.25-.3.5-.6.76-.94"/><path d="M920 695.75h120v80H920z" stroke="#000" stroke-opacity="0" stroke-width="2" fill="#fff" fill-opacity="0"/><use xlink:href="#d" transform="matrix(1,0,0,1,925,700.75) translate(32.77777777777777 45.66666666666667)"/><path d="M1560 360h150v68h-150zM1710 360h150v68h-150zM1560 428h150v68h-150zM1710 428h150v68h-150zM1560 496h150v68h-150zM1710 496h150v68h-150zM1560 564h150v68h-150zM1710 564h150v68h-150zM1560 632h150v68h-150zM1710 632h150v68h-150z" fill="#fff"/><path d="M1560 360v68M1710 360v68M1860 360v68M1560 428v68M1710 428v68M1860 428v68M1560 496v68M1710 496v68M1860 496v68M1560 564v68M1710 564v68M1860 564v68M1560 632v68M1710 632v68M1860 632v68M1560 360h150M1710 360h150M1560 428h150M1710 428h150M1560 496h150M1710 496h150M1560 564h150M1710 564h150M1560 632h150M1560 700h150M1710 632h150M1710 700h150" stroke="#000" stroke-width="2" fill="none"/><use xlink:href="#e" transform="matrix(1,0,0,1,1565,365) translate(23.77777777777777 37.5)"/><use xlink:href="#f" transform="matrix(1,0,0,1,1715,365) translate(17.888888888888886 37.5)"/><path d="M1570 300h280v52.48h-280z" stroke="#000" stroke-opacity="0" stroke-width="2" fill="#fff" fill-opacity="0"/><use xlink:href="#g" transform="matrix(1,0,0,1,1575,305) translate(10.333333333333314 32)"/><use xlink:href="#h" transform="matrix(1,0,0,1,1575,305) translate(143.55555555555554 32)"/><path d="M1620 440h37.6v37.98H1620z" fill="#fff" fill-opacity="0"/><path d="M1635.2 446.93l-.26 1.65h-4.3l-4.48 16.84c-.05.2-.1.56-.1.72 0 .66.3.82.77.82.82 0 1.64-.82 4.16-4.06l.66.36c-3.1 4.72-4.68 6.2-7.35 6.2-1.37 0-2.35-.6-2.35-1.9 0-.55.4-2.14.82-3.8l4-15.18h-3.84c-.05-.16-.05-.3-.05-.3 0-.58.46-1.04 1.7-1.3 1.63-.36 4.97-2.87 6.82-5.64.2-.3.5-.47.72-.47.3 0 .46.16.46.4 0 0 0 .27-.05.37l-1.44 5.3h4.1M1651.55 464.66c0 6.24-2.3 12.5-8.2 12.5-6.2 0-8.2-6.76-8.2-12.72 0-6.42 2.5-12.34 8.34-12.34 4.75 0 8.05 5.12 8.05 12.56m-3.5.18c0-7.55-1.58-11.8-4.78-11.8-3 0-4.65 4.3-4.65 11.66 0 7.37 1.6 11.5 4.72 11.5 3.1 0 4.72-4.17 4.72-11.36"/><path d="M1620 511h37.93v37.8H1620z" fill="#fff" fill-opacity="0"/><path d="M1635.33 518l-.26 1.66h-4.35l-4.5 17c-.06.2-.1.56-.1.7 0 .7.3.84.77.84.82 0 1.65-.83 4.18-4.1l.68.37c-3.1 4.77-4.72 6.27-7.4 6.27-1.4 0-2.4-.62-2.4-1.92 0-.56.42-2.17.84-3.83l4.04-15.34h-3.9c-.04-.15-.04-.3-.04-.3 0-.58.47-1.04 1.7-1.3 1.67-.37 5.03-2.9 6.9-5.7.2-.3.52-.47.72-.47.3 0 .47.15.47.4 0 0 0 .27-.06.37l-1.45 5.33h4.13M1648.82 547.97h-10.1v-.55c2.7-.14 3.47-.9 3.47-2.93v-16.45c0-1.25-.34-1.8-1.1-1.8-.37 0-1 .2-1.65.44l-1 .36v-.5l6.56-3.34.34.1v21.87c0 1.56.73 2.22 3.48 2.22v.55"/><path d="M1620 642.6h37.6v37.8H1620z" fill="#fff" fill-opacity="0"/><path d="M1635.2 649.54l-.26 1.65h-4.3l-4.48 16.83c-.05.2-.1.56-.1.72 0 .66.3.82.77.82.82 0 1.64-.82 4.16-4.06l.66.37c-3.1 4.73-4.68 6.2-7.35 6.2-1.37 0-2.35-.6-2.35-1.9 0-.55.4-2.14.82-3.78l4-15.2h-3.84c-.05-.17-.05-.32-.05-.32 0-.57.46-1.03 1.7-1.28 1.63-.36 4.97-2.88 6.82-5.65.2-.3.5-.46.72-.46.3 0 .46.14.46.4 0 0 0 .25-.05.36l-1.44 5.28h4.1M1650.97 675l.5.48c-2.46 3.37-3.37 4.1-5.08 4.1-.9 0-1.7-.58-1.7-1.96 0-.36.06-.84.57-2.72l1.6-5.9c.3-1.1.5-2.42.5-2.85 0-.66-.32-1.06-.87-1.06-1.45 0-3.08 1.77-5.37 5.15-1.63 2.43-1.92 3.27-3.63 9h-2.72l3.48-12.7c.04-.2.07-.4.07-.62 0-.73-.5-.95-2.36-.98v-.58c2.95-.58 3.96-.73 5.9-1.13l.13.07-2.43 7.93c3.63-5.8 6.06-8 8.4-8 1.55 0 2.35.92 2.35 2.23 0 .65-.15 1.4-.37 2.17l-2.03 7.37c-.36 1.3-.5 1.93-.5 2.22 0 .33.14.65.57.65.5 0 1.15-.58 2.2-1.92.26-.3.5-.62.77-.95"/><path d="M1760 440h51.16v37.8H1760z" fill="#fff" fill-opacity="0"/><path d="M1774.8 455.1l1.15 6.1c4.72-7.82 6.78-11.82 6.78-14.26 0-.78-.4-1.1-1.45-1.78-1.1-.72-1.44-1.27-1.44-2.16 0-1.22.94-2.06 2.22-2.06 1.66 0 2.9 1.4 2.9 3.06 0 3.16-2.68 9.26-7.28 16.92-5.78 9.55-11.7 15.93-14.88 15.93-1.66 0-2.83-.94-2.83-2.4 0-1.2.95-2.2 2.17-2.2 1.94 0 1.94 1.55 3.38 1.55.72 0 1.4-.45 2.67-1.83.98-1.06 3.48-4.33 3.93-5.05.33-.67.55-1.34.55-1.95 0-2.22-3.05-14.65-4.55-18.42-1.05-2.72-2.05-3.55-4.27-3.55-.6 0-1.1.05-1.72.22v-.94c.6-.1 1.22-.23 1.77-.34 1.12-.22 2.95-.55 5.95-1h.22c.83 0 3.78 9.22 4.72 14.16M1804.63 460.83c0 6.75-2.48 13.5-8.87 13.5-6.7 0-8.87-7.3-8.87-13.74 0-6.95 2.7-13.35 9-13.35 5.16 0 8.73 5.53 8.73 13.58m-3.77.2c0-8.17-1.73-12.76-5.18-12.76-3.26 0-5.02 4.63-5.02 12.6 0 7.96 1.72 12.44 5.1 12.44 3.33 0 5.1-4.5 5.1-12.28"/><path d="M1760 511.1h51.16v37.8H1760z" fill="#fff" fill-opacity="0"/><path d="M1774.8 526.2l1.15 6.1c4.72-7.82 6.78-11.82 6.78-14.26 0-.78-.4-1.1-1.45-1.78-1.1-.72-1.44-1.27-1.44-2.16 0-1.22.94-2.05 2.22-2.05 1.66 0 2.9 1.38 2.9 3.05 0 3.16-2.68 9.27-7.28 16.93-5.78 9.54-11.7 15.92-14.88 15.92-1.66 0-2.83-.94-2.83-2.38 0-1.22.95-2.22 2.17-2.22 1.94 0 1.94 1.55 3.38 1.55.72 0 1.4-.44 2.67-1.83.98-1.06 3.48-4.33 3.93-5.05.33-.67.55-1.33.55-1.94 0-2.22-3.05-14.65-4.55-18.43-1.05-2.72-2.05-3.55-4.27-3.55-.6 0-1.1.06-1.72.22v-.94c.6-.1 1.22-.22 1.77-.33 1.12-.23 2.95-.56 5.95-1h.22c.83 0 3.78 9.2 4.72 14.15M1801.4 544.88h-10.82v-.6c2.9-.15 3.73-.97 3.73-3.13v-17.62c0-1.33-.35-1.92-1.17-1.92-.4 0-1.06.2-1.77.48l-1.06.4v-.56l7.03-3.57.35.12v23.43c0 1.68.8 2.4 3.73 2.4v.58"/><path d="M1760 642.7h51.16v37.8H1760z" fill="#fff" fill-opacity="0"/><path d="M1774.8 657.8l1.15 6.1c4.72-7.82 6.78-11.82 6.78-14.26 0-.78-.4-1.1-1.45-1.78-1.1-.72-1.44-1.27-1.44-2.16 0-1.22.94-2.05 2.22-2.05 1.66 0 2.9 1.38 2.9 3.05 0 3.16-2.68 9.27-7.28 16.93-5.78 9.54-11.7 15.92-14.88 15.92-1.66 0-2.83-.94-2.83-2.38 0-1.22.95-2.22 2.17-2.22 1.94 0 1.94 1.55 3.38 1.55.72 0 1.4-.44 2.67-1.83.98-1.06 3.48-4.33 3.93-5.05.33-.67.55-1.33.55-1.94 0-2.22-3.05-14.65-4.55-18.43-1.05-2.72-2.05-3.55-4.27-3.55-.6 0-1.1.06-1.72.22v-.94c.6-.1 1.22-.22 1.77-.33 1.12-.23 2.95-.56 5.95-1h.22c.83 0 3.78 9.2 4.72 14.15M1804 671.9l.55.5c-2.67 3.65-3.65 4.43-5.5 4.43-.98 0-1.84-.63-1.84-2.12 0-.38.1-.9.64-2.93l1.72-6.36c.32-1.2.55-2.62.55-3.1 0-.7-.34-1.12-.93-1.12-1.57 0-3.33 1.92-5.8 5.57-1.77 2.63-2.1 3.53-3.93 9.73h-2.94l3.76-13.74c.04-.2.08-.43.08-.66 0-.8-.55-1.02-2.55-1.06v-.63c3.17-.64 4.27-.8 6.35-1.23l.16.08-2.62 8.56c3.92-6.27 6.55-8.63 9.06-8.63 1.7 0 2.55.98 2.55 2.4 0 .7-.16 1.53-.4 2.35l-2.2 7.97c-.4 1.4-.55 2.07-.55 2.38 0 .35.16.7.63.7.55 0 1.26-.62 2.4-2.07.27-.3.54-.66.82-1"/><path d="M1600 631.28v-66.34h61.82v66.34z" stroke="#000" stroke-opacity="0" stroke-width="2" fill="#fff" fill-opacity="0"/><use xlink:href="#i" transform="matrix(6.123233995736766e-17,-1,1,6.123233995736766e-17,1605.0000000000002,626.2816837610767) translate(11.833333333333336 34)"/><path d="M1740 631.28v-66.34h73.64v66.34z" stroke="#000" stroke-opacity="0" stroke-width="2" fill="#fff" fill-opacity="0"/><use xlink:href="#i" transform="matrix(6.123233995736766e-17,-1,1,6.123233995736766e-17,1745.0000000000005,626.2816837610769) translate(11.833333333333336 40)"/><path d="M1240 800h620v95.33h-620z" stroke="#000" stroke-opacity="0" stroke-width="2" fill="#fff" fill-opacity="0"/><use xlink:href="#j" transform="matrix(1,0,0,1,1245,805) translate(0 29.666666666666657)"/><use xlink:href="#k" transform="matrix(1,0,0,1,1245,805) translate(37.03703703703704 29.666666666666657)"/><use xlink:href="#l" transform="matrix(1,0,0,1,1245,805) translate(109.16666666666667 29.666666666666657)"/><use xlink:href="#m" transform="matrix(1,0,0,1,1245,805) translate(231.2037037037037 29.666666666666657)"/><use xlink:href="#n" transform="matrix(1,0,0,1,1245,805) translate(268.24074074074076 29.666666666666657)"/><use xlink:href="#m" transform="matrix(1,0,0,1,1245,805) translate(364.35185185185185 29.666666666666657)"/><use xlink:href="#o" transform="matrix(1,0,0,1,1245,805) translate(401.3888888888889 29.666666666666657)"/><use xlink:href="#p" transform="matrix(1,0,0,1,1245,805) translate(429.1666666666667 29.666666666666657)"/><use xlink:href="#q" transform="matrix(1,0,0,1,1245,805) translate(0 69.66666666666666)"/><use xlink:href="#k" transform="matrix(1,0,0,1,1245,805) translate(35.18518518518519 69.66666666666666)"/><use xlink:href="#r" transform="matrix(1,0,0,1,1245,805) translate(107.31481481481482 69.66666666666666)"/><use xlink:href="#m" transform="matrix(1,0,0,1,1245,805) translate(207.22222222222223 69.66666666666666)"/><use xlink:href="#s" transform="matrix(1,0,0,1,1245,805) translate(244.25925925925927 69.66666666666666)"/><use xlink:href="#m" transform="matrix(1,0,0,1,1245,805) translate(367.96296296296293 69.66666666666666)"/><use xlink:href="#o" transform="matrix(1,0,0,1,1245,805) translate(405 69.66666666666666)"/><use xlink:href="#t" transform="matrix(1,0,0,1,1245,805) translate(432.77777777777777 69.66666666666666)"/><use xlink:href="#u" transform="matrix(1,0,0,1,1245,805) translate(529.7222222222222 69.66666666666666)"/><path d="M840 359v-20.5M840 358.97V360" stroke="#000" stroke-width="2" fill="none"/><path d="M840 323.24l4.64 14.26h-9.28z" stroke="#000" stroke-width="2"/><path d="M360 724.1h23.95v34.64H360z" fill="#fff" fill-opacity="0"/><path d="M382.78 741.47c0 8.23-3.02 16.46-10.82 16.46-8.18 0-10.8-8.9-10.8-16.75 0-8.47 3.3-16.27 11-16.27 6.26 0 10.62 6.76 10.62 16.57m-4.6.24c0-9.95-2.1-15.55-6.3-15.55-3.98 0-6.14 5.65-6.14 15.36 0 9.73 2.1 15.18 6.22 15.18 4.07 0 6.22-5.5 6.22-14.97"/><path d="M380 695.75h120v80H380z" stroke="#000" stroke-opacity="0" stroke-width="2" fill="#fff" fill-opacity="0"/><g><use xlink:href="#d" transform="matrix(1,0,0,1,385,700.75) translate(32.77777777777777 45.66666666666667)"/></g><path d="M1080 724.1h81.37v38.12H1080z" fill="#fff" fill-opacity="0"/><path d="M1095.33 731.1l-.26 1.65h-4.35l-4.5 16.98c-.06.2-.1.57-.1.73 0 .67.3.83.77.83.82 0 1.65-.84 4.18-4.1l.68.36c-3.1 4.76-4.72 6.27-7.4 6.27-1.4 0-2.4-.63-2.4-1.92 0-.56.42-2.17.84-3.82l4.04-15.33h-3.9c-.04-.16-.04-.3-.04-.3 0-.58.47-1.05 1.7-1.3 1.67-.37 5.03-2.9 6.9-5.7.2-.32.52-.47.72-.47.3 0 .47.15.47.4 0 0 0 .27-.06.37l-1.45 5.34h4.13M1111.24 756.74l.52.48c-2.5 3.4-3.4 4.13-5.13 4.13-.92 0-1.72-.58-1.72-1.97 0-.37.08-.85.6-2.75l1.6-5.93c.3-1.14.52-2.46.52-2.9 0-.66-.33-1.06-.88-1.06-1.47 0-3.1 1.8-5.42 5.2-1.65 2.46-1.94 3.3-3.66 9.08h-2.75l3.53-12.8c.03-.2.07-.42.07-.64 0-.73-.5-.95-2.38-.98v-.6c2.97-.58 4-.72 5.93-1.13l.15.08-2.46 7.98c3.67-5.86 6.12-8.06 8.46-8.06 1.58 0 2.38.92 2.38 2.24 0 .67-.14 1.44-.36 2.2l-2.05 7.44c-.37 1.32-.5 1.94-.5 2.23 0 .33.13.66.57.66.5 0 1.17-.58 2.24-1.94l.76-.96M1135.45 752.97h-20.4v-2.42h20.4v2.42M1152.26 761.02h-10.1v-.54c2.7-.15 3.47-.92 3.47-2.93V741.1c0-1.24-.33-1.8-1.1-1.8-.36 0-1 .2-1.64.45l-1 .36v-.5l6.55-3.33.33.1v21.87c0 1.58.73 2.24 3.48 2.24v.54"/><path d="M1460 722.68h31.68v34.64H1460z" fill="#fff" fill-opacity="0"/><path d="M1484.95 747.7l1.14.7c-4.36 5.5-8.14 7.7-13.48 7.7-6.63 0-10.48-3.7-10.48-10.97 0-6.63 3.7-12.83 8.77-16.9 3.5-2.77 7.56-4.34 11.9-4.34 4.36 0 7.5 2.4 7.5 5.76 0 1.93-1.57 3.43-3.43 3.43-2 0-2.78-1.44-2.78-2.87 0-1.28 1.06-2.06 1.06-3.42 0-.84-1-1.4-2.64-1.4-2.85 0-5.7 1.27-7.77 3.4-4 4.2-6.48 10.27-6.48 16.62 0 5.13 2.28 8.12 6.34 8.12 3.8 0 6.5-1.78 10.35-5.84"/><defs><path d="M33 0v-38h34V0H33" id="v"/><g id="a"><use transform="matrix(0.14814814814814817,0,0,0.14814814814814817,0,0)" xlink:href="#v"/><use transform="matrix(0.14814814814814817,0,0,0.14814814814814817,14.814814814814817,0)" xlink:href="#v"/><use transform="matrix(0.14814814814814817,0,0,0.14814814814814817,29.629629629629633,0)" xlink:href="#v"/></g><path d="M76-208v77h127v40H76V0H24v-248h183v40H76" id="w"/><path d="M185-48c-13 30-37 53-82 52C43 2 14-33 14-96s30-98 90-98c62 0 83 45 84 108H66c0 31 8 55 39 56 18 0 30-7 34-22zm-45-69c5-46-57-63-70-21-2 6-4 13-4 21h74" id="x"/><path d="M133-34C117-15 103 5 69 4 32 3 11-16 11-54c-1-60 55-63 116-61 1-26-3-47-28-47-18 1-26 9-28 27l-52-2c7-38 36-58 82-57s74 22 75 68l1 82c-1 14 12 18 25 15v27c-30 8-71 5-69-32zm-48 3c29 0 43-24 42-57-32 0-66-3-65 30 0 17 8 27 23 27" id="y"/><path d="M115-3C79 11 28 4 28-45v-112H4v-33h27l15-45h31v45h36v33H77v99c-1 23 16 31 38 25v30" id="z"/><path d="M85 4C-2 5 27-109 22-190h50c7 57-23 150 33 157 60-5 35-97 40-157h50l1 190h-47c-2-12 1-28-3-38-12 25-28 42-61 42" id="A"/><path d="M135-150c-39-12-60 13-60 57V0H25l-1-190h47c2 13-1 29 3 40 6-28 27-53 61-41v41" id="B"/><path d="M137-138c1-29-70-34-71-4 15 46 118 7 119 86 1 83-164 76-172 9l43-7c4 19 20 25 44 25 33 8 57-30 24-41C81-84 22-81 20-136c-2-80 154-74 161-7" id="C"/><g id="b"><use transform="matrix(0.1111111111111111,0,0,0.1111111111111111,0,0)" xlink:href="#w"/><use transform="matrix(0.1111111111111111,0,0,0.1111111111111111,24.333333333333332,0)" xlink:href="#x"/><use transform="matrix(0.1111111111111111,0,0,0.1111111111111111,46.55555555555556,0)" xlink:href="#y"/><use transform="matrix(0.1111111111111111,0,0,0.1111111111111111,68.77777777777777,0)" xlink:href="#z"/><use transform="matrix(0.1111111111111111,0,0,0.1111111111111111,82,0)" xlink:href="#A"/><use transform="matrix(0.1111111111111111,0,0,0.1111111111111111,106.33333333333333,0)" xlink:href="#B"/><use transform="matrix(0.1111111111111111,0,0,0.1111111111111111,121.88888888888889,0)" xlink:href="#x"/><use transform="matrix(0.1111111111111111,0,0,0.1111111111111111,144.11111111111111,0)" xlink:href="#C"/></g><path d="M136-208V0H84v-208H4v-40h212v40h-80" id="D"/><path d="M25-224v-37h50v37H25zM25 0v-190h50V0H25" id="E"/><path d="M220-157c-53 9-28 100-34 157h-49v-107c1-27-5-49-29-50C55-147 81-57 75 0H25l-1-190h47c2 12-1 28 3 38 10-53 101-56 108 0 13-22 24-43 59-42 82 1 51 116 57 194h-49v-107c-1-25-5-48-29-50" id="F"/><g id="c"><use transform="matrix(0.1111111111111111,0,0,0.1111111111111111,0,0)" xlink:href="#D"/><use transform="matrix(0.1111111111111111,0,0,0.1111111111111111,23.555555555555554,0)" xlink:href="#E"/><use transform="matrix(0.1111111111111111,0,0,0.1111111111111111,34.666666666666664,0)" xlink:href="#F"/><use transform="matrix(0.1111111111111111,0,0,0.1111111111111111,70.22222222222223,0)" xlink:href="#x"/></g><g id="d"><use transform="matrix(0.14814814814814817,0,0,0.14814814814814817,0,0)" xlink:href="#v"/><use transform="matrix(0.14814814814814817,0,0,0.14814814814814817,14.814814814814817,0)" xlink:href="#v"/><use transform="matrix(0.14814814814814817,0,0,0.14814814814814817,29.629629629629633,0)" xlink:href="#v"/></g><g id="e"><use transform="matrix(0.1111111111111111,0,0,0.1111111111111111,0,0)" xlink:href="#D"/><use transform="matrix(0.1111111111111111,0,0,0.1111111111111111,23.555555555555554,0)" xlink:href="#E"/><use transform="matrix(0.1111111111111111,0,0,0.1111111111111111,34.666666666666664,0)" xlink:href="#F"/><use transform="matrix(0.1111111111111111,0,0,0.1111111111111111,70.22222222222223,0)" xlink:href="#x"/></g><path d="M24 0v-248h52v208h133V0H24" id="G"/><path d="M135-194c52 0 70 43 70 98 0 56-19 99-73 100-30 1-46-15-58-35L72 0H24l1-261h50v104c11-23 29-37 60-37zM114-30c31 0 40-27 40-66 0-37-7-63-39-63s-41 28-41 65c0 36 8 64 40 64" id="H"/><path d="M25 0v-261h50V0H25" id="I"/><g id="f"><use transform="matrix(0.1111111111111111,0,0,0.1111111111111111,0,0)" xlink:href="#G"/><use transform="matrix(0.1111111111111111,0,0,0.1111111111111111,24.333333333333332,0)" xlink:href="#y"/><use transform="matrix(0.1111111111111111,0,0,0.1111111111111111,46.55555555555556,0)" xlink:href="#H"/><use transform="matrix(0.1111111111111111,0,0,0.1111111111111111,70.88888888888889,0)" xlink:href="#x"/><use transform="matrix(0.1111111111111111,0,0,0.1111111111111111,93.11111111111111,0)" xlink:href="#I"/></g><path d="M169-182c-1-43-94-46-97-3 18 66 151 10 154 114 3 95-165 93-204 36-6-8-10-19-12-30l50-8c3 46 112 56 116 5-17-69-150-10-154-114-4-87 153-88 188-35 5 8 8 18 10 28" id="J"/><g id="g"><use transform="matrix(0.1111111111111111,0,0,0.1111111111111111,0,0)" xlink:href="#J"/><use transform="matrix(0.1111111111111111,0,0,0.1111111111111111,26.666666666666664,0)" xlink:href="#z"/><use transform="matrix(0.1111111111111111,0,0,0.1111111111111111,39.888888888888886,0)" xlink:href="#B"/><use transform="matrix(0.1111111111111111,0,0,0.1111111111111111,55.44444444444444,0)" xlink:href="#x"/><use transform="matrix(0.1111111111111111,0,0,0.1111111111111111,77.66666666666666,0)" xlink:href="#C"/><use transform="matrix(0.1111111111111111,0,0,0.1111111111111111,99.88888888888889,0)" xlink:href="#C"/></g><g id="h"><use transform="matrix(0.1111111111111111,0,0,0.1111111111111111,0,0)" xlink:href="#G"/><use transform="matrix(0.1111111111111111,0,0,0.1111111111111111,24.333333333333332,0)" xlink:href="#y"/><use transform="matrix(0.1111111111111111,0,0,0.1111111111111111,46.55555555555556,0)" xlink:href="#H"/><use transform="matrix(0.1111111111111111,0,0,0.1111111111111111,70.88888888888889,0)" xlink:href="#x"/><use transform="matrix(0.1111111111111111,0,0,0.1111111111111111,93.11111111111111,0)" xlink:href="#I"/><use transform="matrix(0.1111111111111111,0,0,0.1111111111111111,104.22222222222223,0)" xlink:href="#C"/></g><g id="i"><use transform="matrix(0.1111111111111111,0,0,0.1111111111111111,0,0)" xlink:href="#v"/><use transform="matrix(0.1111111111111111,0,0,0.1111111111111111,11.11111111111111,0)" xlink:href="#v"/><use transform="matrix(0.1111111111111111,0,0,0.1111111111111111,22.22222222222222,0)" xlink:href="#v"/></g><path d="M67-158c22-48 132-52 116 29L158 0h-32l25-140c3-38-53-32-70-12C52-117 51-52 38 0H6l36-190h30" id="K"/><path d="M44-154l7-36h35l-8 36H44zM14 0l7-36h35L49 0H14" id="L"/><g id="j"><use transform="matrix(0.0925925925925926,0,0,0.0925925925925926,0,0)" xlink:href="#K"/><use transform="matrix(0.0925925925925926,0,0,0.0925925925925926,18.51851851851852,0)" xlink:href="#L"/></g><path d="M51-54c-9 22 5 41 31 30L79-1C43 14 10-4 19-52l22-115H19l5-23h22l19-43h21l-9 43h35l-4 23H73" id="M"/><path d="M30-147c31-64 166-65 159 27C183-49 158 1 86 4 9 8 1-88 30-147zM88-20c53 0 68-48 68-100 0-31-11-51-44-50-52 1-68 46-68 97 0 32 13 53 44 53" id="N"/><path d="M165-48c-4 18 1 34 23 27l-3 20c-29 8-62 0-52-35h-2C116-14 99 4 63 4 30 4 8-16 8-49c0-68 71-67 138-67 10-26 0-56-31-54-26 1-42 9-47 31l-32-5c8-67 160-71 144 15-5 28-9 54-15 81zM42-50c3 52 80 24 89-6 7-12 7-24 11-38-47 1-103-4-100 44" id="O"/><path d="M6 0l50-261h32L37 0H6" id="P"/><g id="k"><use transform="matrix(0.0925925925925926,0,0,0.0925925925925926,0,0)" xlink:href="#M"/><use transform="matrix(0.0925925925925926,0,0,0.0925925925925926,9.25925925925926,0)" xlink:href="#N"/><use transform="matrix(0.0925925925925926,0,0,0.0925925925925926,27.777777777777782,0)" xlink:href="#M"/><use transform="matrix(0.0925925925925926,0,0,0.0925925925925926,37.03703703703704,0)" xlink:href="#O"/><use transform="matrix(0.0925925925925926,0,0,0.0925925925925926,55.555555555555564,0)" xlink:href="#P"/></g><path d="M67 3c-93-2-31-127-26-193h32L48-50c-3 39 53 32 70 12 30-34 30-101 43-152h32L157 0h-30c1-10 6-24 4-33-14 20-29 37-64 36" id="Q"/><path d="M248-111c6-24 9-61-24-58-72 9-57 108-77 169h-31l26-142c3-37-50-30-64-10C52-115 50-51 37 0H6l36-190h30c-1 10-6 24-4 32 13-43 101-52 105 5 13-22 29-41 61-41 90 0 28 129 23 194h-31" id="R"/><path d="M68-162c25-46 127-43 121 31C183-60 169 1 98 4 69 5 53-11 43-31L36 0H5l52-261h31zm88 36c2-27-9-43-34-43-55 0-70 51-70 103 0 29 15 45 43 46 52 0 58-58 61-106" id="S"/><path d="M111-194c62-3 86 47 72 106H45c-7 38 6 69 45 68 27-1 43-14 53-32l24 11C152-15 129 4 87 4 38 3 12-23 12-71c0-70 32-119 99-123zm44 81c14-66-71-72-95-28-4 8-8 17-11 28h106" id="T"/><path d="M66-151c12-25 30-51 66-40l-6 26C45-176 58-65 38 0H6l36-190h30" id="U"/><g id="l"><use transform="matrix(0.0925925925925926,0,0,0.0925925925925926,0,0)" xlink:href="#K"/><use transform="matrix(0.0925925925925926,0,0,0.0925925925925926,18.51851851851852,0)" xlink:href="#Q"/><use transform="matrix(0.0925925925925926,0,0,0.0925925925925926,37.03703703703704,0)" xlink:href="#R"/><use transform="matrix(0.0925925925925926,0,0,0.0925925925925926,64.72222222222223,0)" xlink:href="#S"/><use transform="matrix(0.0925925925925926,0,0,0.0925925925925926,83.24074074074075,0)" xlink:href="#T"/><use transform="matrix(0.0925925925925926,0,0,0.0925925925925926,101.75925925925927,0)" xlink:href="#U"/></g><path d="M76-167L44 0H12l33-167H18l4-23h27c3-47 25-81 82-69l-4 24c-35-8-44 15-46 45h37l-5 23H76" id="V"/><g id="m"><use transform="matrix(0.0925925925925926,0,0,0.0925925925925926,0,0)" xlink:href="#N"/><use transform="matrix(0.0925925925925926,0,0,0.0925925925925926,18.51851851851852,0)" xlink:href="#V"/></g><path d="M55-144c13 50 104 24 104 88C159 21 15 23 1-39l26-10c6 40 102 42 102-4-13-50-104-23-104-87 0-71 143-71 148-8l-29 4c-5-35-85-37-89 0" id="W"/><g id="n"><use transform="matrix(0.0925925925925926,0,0,0.0925925925925926,0,0)" xlink:href="#P"/><use transform="matrix(0.0925925925925926,0,0,0.0925925925925926,7.314814814814816,0)" xlink:href="#O"/><use transform="matrix(0.0925925925925926,0,0,0.0925925925925926,25.833333333333336,0)" xlink:href="#S"/><use transform="matrix(0.0925925925925926,0,0,0.0925925925925926,44.351851851851855,0)" xlink:href="#T"/><use transform="matrix(0.0925925925925926,0,0,0.0925925925925926,62.870370370370374,0)" xlink:href="#P"/><use transform="matrix(0.0925925925925926,0,0,0.0925925925925926,70.18518518518519,0)" xlink:href="#W"/></g><use transform="matrix(0.0925925925925926,0,0,0.0925925925925926,0,0)" xlink:href="#O" id="o"/><path d="M14 0l8-38h34L48 0H14" id="X"/><g id="p"><use transform="matrix(0.0925925925925926,0,0,0.0925925925925926,0,0)" xlink:href="#Q"/><use transform="matrix(0.0925925925925926,0,0,0.0925925925925926,18.51851851851852,0)" xlink:href="#W"/><use transform="matrix(0.0925925925925926,0,0,0.0925925925925926,35.18518518518519,0)" xlink:href="#T"/><use transform="matrix(0.0925925925925926,0,0,0.0925925925925926,53.70370370370371,0)" xlink:href="#U"/><use transform="matrix(0.0925925925925926,0,0,0.0925925925925926,63.518518518518526,0)" xlink:href="#X"/></g><path d="M44-68c0 29 11 47 38 47 30 0 42-19 51-41l28 9C148-21 126 4 82 4 31 4 10-29 12-85c3-77 74-140 146-93 12 8 15 23 18 40l-31 5c-1-22-13-36-36-36-52 0-65 49-65 101" id="Y"/><g id="q"><use transform="matrix(0.0925925925925926,0,0,0.0925925925925926,0,0)" xlink:href="#Y"/><use transform="matrix(0.0925925925925926,0,0,0.0925925925925926,16.666666666666668,0)" xlink:href="#L"/></g><path d="M103-194c29 0 47 14 56 36 2-11 5-23 8-32h30L160-5C157 61 82 97 21 62 9 55 4 45 1 30l28-7c7 42 83 31 92-3 4-16 9-38 13-55-13 20-29 36-62 36-40 0-60-25-60-64 0-71 23-131 91-131zm4 24c-53 0-58 54-61 104-2 27 10 44 36 44 49 0 65-50 67-102 1-29-15-46-42-46" id="Z"/><path d="M67-158c15-20 31-36 64-36 94 0 33 127 27 194h-32l25-140c3-38-53-32-70-12C52-117 51-51 37 0H6l51-261h31" id="aa"/><g id="r"><use transform="matrix(0.0925925925925926,0,0,0.0925925925925926,0,0)" xlink:href="#P"/><use transform="matrix(0.0925925925925926,0,0,0.0925925925925926,7.314814814814816,0)" xlink:href="#T"/><use transform="matrix(0.0925925925925926,0,0,0.0925925925925926,25.833333333333336,0)" xlink:href="#K"/><use transform="matrix(0.0925925925925926,0,0,0.0925925925925926,44.351851851851855,0)" xlink:href="#Z"/><use transform="matrix(0.0925925925925926,0,0,0.0925925925925926,62.870370370370374,0)" xlink:href="#M"/><use transform="matrix(0.0925925925925926,0,0,0.0925925925925926,72.12962962962963,0)" xlink:href="#aa"/></g><path d="M50-231l6-30h32l-6 30H50zM6 0l37-190h31L37 0H6" id="ab"/><g id="s"><use transform="matrix(0.0925925925925926,0,0,0.0925925925925926,0,0)" xlink:href="#M"/><use transform="matrix(0.0925925925925926,0,0,0.0925925925925926,9.25925925925926,0)" xlink:href="#ab"/><use transform="matrix(0.0925925925925926,0,0,0.0925925925925926,16.574074074074076,0)" xlink:href="#R"/><use transform="matrix(0.0925925925925926,0,0,0.0925925925925926,44.25925925925927,0)" xlink:href="#T"/><use transform="matrix(0.0925925925925926,0,0,0.0925925925925926,62.777777777777786,0)" xlink:href="#P"/><use transform="matrix(0.0925925925925926,0,0,0.0925925925925926,70.0925925925926,0)" xlink:href="#ab"/><use transform="matrix(0.0925925925925926,0,0,0.0925925925925926,77.4074074074074,0)" xlink:href="#K"/><use transform="matrix(0.0925925925925926,0,0,0.0925925925925926,95.92592592592591,0)" xlink:href="#T"/></g><path d="M60-170H36l11-78h32" id="ac"/><g id="t"><use transform="matrix(0.0925925925925926,0,0,0.0925925925925926,0,0)" xlink:href="#Q"/><use transform="matrix(0.0925925925925926,0,0,0.0925925925925926,18.51851851851852,0)" xlink:href="#W"/><use transform="matrix(0.0925925925925926,0,0,0.0925925925925926,35.18518518518519,0)" xlink:href="#T"/><use transform="matrix(0.0925925925925926,0,0,0.0925925925925926,53.70370370370371,0)" xlink:href="#U"/><use transform="matrix(0.0925925925925926,0,0,0.0925925925925926,64.72222222222223,0)" xlink:href="#ac"/><use transform="matrix(0.0925925925925926,0,0,0.0925925925925926,71.01851851851852,0)" xlink:href="#W"/></g><path d="M133-28C103 26-5 8 13-77c13-62 24-115 90-117 29-1 46 15 56 35l19-102h32L160 0h-30zM45-64c-2 27 10 43 35 43 54-1 69-50 69-103 0-29-15-46-42-46-53-1-58 58-62 106" id="ad"/><g id="u"><use transform="matrix(0.0925925925925926,0,0,0.0925925925925926,0,0)" xlink:href="#ad"/><use transform="matrix(0.0925925925925926,0,0,0.0925925925925926,18.51851851851852,0)" xlink:href="#O"/><use transform="matrix(0.0925925925925926,0,0,0.0925925925925926,37.03703703703704,0)" xlink:href="#M"/><use transform="matrix(0.0925925925925926,0,0,0.0925925925925926,46.2962962962963,0)" xlink:href="#O"/><use transform="matrix(0.0925925925925926,0,0,0.0925925925925926,64.81481481481481,0)" xlink:href="#X"/></g></defs></g></svg>