<svg xmlns="http://www.w3.org/2000/svg" xmlns:xlink="http://www.w3.org/1999/xlink" xmlns:lucid="lucid" width="613.92" height="442.57"><g transform="translate(-160 -80)" lucid:page-tab-id="0_0"><path d="M210 100c-16.57 0-30 13.43-30 30v320c0 16.57 13.43 30 30 30m180 0c16.57 0 30-13.43 30-30V130c0-16.57-13.43-30-30-30" stroke="#000" stroke-width="2" fill="none"/><path d="M212.4 120.53c-5.47 0-9.92 4.45-9.92 9.93v59.6c0 5.5 4.45 9.94 9.93 9.94m115.2 0c5.47 0 9.92-4.45 9.92-9.93v-59.6c0-5.5-4.45-9.94-9.93-9.94" stroke="#000" stroke-width="2" fill="none"/><path d="M240.85 139.74h60.78v41.7h-60.78z" fill="#fff" fill-opacity="0"/><path d="M258.56 146.5l.8 3.75c4.6-7.03 7.02-9.4 9.9-9.4 1.6 0 2.7 1 2.7 2.44 0 1.37-.92 2.35-2.23 2.35-1.25 0-1.84-1.12-3.42-1.12-1.17 0-3.54 2.9-6.43 7.96 0 .45.13 1.37.53 2.94l2.1 8.8c.46 1.85 1.05 2.7 1.97 2.7.86 0 1.58-.65 3.1-2.62.58-.8.85-1.2 1.37-1.84l1 .6c-3.82 5.9-5.53 7.48-8.03 7.48-2.1 0-3.08-1.18-3.87-4.47l-1.9-7.83-5.8 7.82c-2.88 3.87-4.2 4.46-6.23 4.46-2.04 0-3.3-1.05-3.3-2.76 0-1.32.93-2.37 2.25-2.37.6 0 1.25.27 2.1.73.66.4 1.32.6 1.7.6.73 0 1.98-1.26 3.36-3.23l5.4-7.63-1.84-8.15c-.92-3.94-1.38-4.46-3.02-4.46-.53 0-1.32.12-2.56.45l-1.2.32-.18-1.05.72-.26c4-1.45 6.18-1.9 7.7-1.9 1.63 0 2.42 1.18 3.34 5.65M293.9 164.4c0 8-2.94 15.98-10.5 15.98-7.96 0-10.5-8.64-10.5-16.26 0-8.22 3.2-15.8 10.68-15.8 6.08 0 10.3 6.55 10.3 16.08m-4.45.23c0-9.66-2.04-15.1-6.13-15.1-3.86 0-5.95 5.48-5.95 14.92 0 9.43 2.04 14.73 6.04 14.73 3.94 0 6.03-5.35 6.03-14.55"/><path d="M590.1 100c-5.58 0-10.1 4.52-10.1 10.1v359.8c0 5.58 4.52 10.1 10.1 10.1m60.52 0c5.57 0 10.1-4.52 10.1-10.1V110.1c0-5.58-4.53-10.1-10.1-10.1" stroke="#000" stroke-width="2" fill="none"/><path d="M340 184.5h60v31.28h-60z" fill="#fff" fill-opacity="0"/><path d="M352.46 193.1l-.68 4.77h-.55c-.34-2.82-1.36-3.95-3.03-3.95-1.2 0-2 .68-2 1.94 0 .92.5 1.9 1.83 3.48 1.7 1.97 2.32 3.3 2.32 4.63 0 2.82-2.08 4.56-4.9 4.56-.58 0-1.1-.04-1.88-.34-.64-.3-1.12-.32-1.5-.32-.37 0-.74.17-.98.72h-.56l.7-5.42h.53c.48 3.24 1.63 4.63 3.4 4.63 1.6 0 2.6-.94 2.6-2.6 0-1.1-.6-2.26-1.9-3.92-1.48-1.84-2.16-3.37-2.16-4.46 0-2.25 1.6-3.68 4.13-3.68.58 0 1.06.1 1.9.34.65.2.96.24 1.23.24.5 0 .75-.14 1.02-.6h.48M370.06 196.07l.4 1.94c2.4-3.63 3.65-4.86 5.15-4.86.83 0 1.4.5 1.4 1.26 0 .7-.47 1.23-1.15 1.23-.65 0-.96-.58-1.77-.58-.62 0-1.84 1.5-3.34 4.12 0 .23.07.7.27 1.53l1.1 4.56c.24.95.55 1.4 1.02 1.4.45 0 .82-.35 1.6-1.37.3-.42.45-.62.72-.96l.5.3c-1.97 3.07-2.85 3.9-4.14 3.9-1.1 0-1.6-.63-2-2.33l-1-4.04-3 4.05c-1.5 2.02-2.17 2.33-3.23 2.33s-1.7-.55-1.7-1.43c0-.68.47-1.23 1.16-1.23.3 0 .64.14 1.08.38.36.2.7.3.9.3.37 0 1.02-.64 1.74-1.67l2.8-3.94-.97-4.23c-.47-2.03-.7-2.3-1.56-2.3-.26 0-.67.07-1.32.24l-.6.17-.1-.54.36-.13c2.08-.75 3.2-1 3.98-1 .85 0 1.26.62 1.74 2.94M386.94 193.58h3.17c.76-2.4 1.34-4.3 2.46-5.9 1.02-1.45 2.42-2.6 4.5-2.6 1.66 0 2.92.88 2.92 2.1 0 .75-.64 1.47-1.43 1.47-.6 0-1.26-.5-1.26-1.33 0-.58.33-.75.33-1.06 0-.27-.27-.44-.74-.44-1.92 0-3.18 2.38-4.17 7.76h3.64l-.2 1.1h-3.68l-2.46 10.9c-1.43 6.28-3.7 9.62-6.8 9.62-1.54 0-2.7-.9-2.7-2.08 0-.78.58-1.43 1.3-1.43.78 0 1.3.54 1.3 1.25 0 .45-.3.62-.3 1 0 .3.26.53.67.53 1.44 0 2.53-1.83 3.3-5.5l3-14.3h-3.1"/><path d="M212.4 220c-5.47 0-9.92 4.45-9.92 9.93v59.6c0 5.5 4.45 9.94 9.93 9.94m115.2 0c5.47 0 9.92-4.45 9.92-9.93v-59.6c0-5.5-4.45-9.94-9.93-9.94" stroke="#000" stroke-width="2" fill="none"/><path d="M240.85 239.2h60.78v41.06h-60.78z" fill="#fff" fill-opacity="0"/><path d="M258.56 245.98l.8 3.74c4.6-7.03 7.02-9.4 9.9-9.4 1.6 0 2.7 1 2.7 2.44 0 1.38-.92 2.36-2.23 2.36-1.25 0-1.84-1.1-3.42-1.1-1.17 0-3.54 2.88-6.43 7.94 0 .46.13 1.38.53 2.96l2.1 8.8c.46 1.84 1.05 2.7 1.97 2.7.86 0 1.58-.66 3.1-2.63.58-.8.85-1.2 1.37-1.85l1 .6c-3.82 5.9-5.53 7.48-8.03 7.48-2.1 0-3.08-1.18-3.87-4.47l-1.9-7.82-5.8 7.82c-2.88 3.88-4.2 4.47-6.23 4.47-2.04 0-3.3-1.05-3.3-2.76 0-1.3.93-2.37 2.25-2.37.6 0 1.25.27 2.1.73.66.4 1.32.6 1.7.6.73 0 1.98-1.26 3.36-3.23l5.4-7.62-1.84-8.15c-.92-3.95-1.38-4.47-3.02-4.47-.53 0-1.32.13-2.56.46l-1.2.33-.18-1.06.72-.27c4-1.44 6.18-1.9 7.7-1.9 1.63 0 2.42 1.18 3.34 5.65M290.08 279.2h-12.82v-.7c3.43-.18 4.4-1.15 4.4-3.7v-20.87c0-1.58-.4-2.28-1.38-2.28-.47 0-1.26.23-2.1.56l-1.25.47v-.65l8.32-4.23.42.13v27.74c0 2 .93 2.84 4.4 2.84v.7"/><path d="M340 280.26h60v31.3h-60z" fill="#fff" fill-opacity="0"/><path d="M352.46 288.88l-.68 4.76h-.55c-.34-2.82-1.36-3.94-3.03-3.94-1.2 0-2 .68-2 1.94 0 .9.5 1.9 1.83 3.47 1.7 1.98 2.32 3.3 2.32 4.64 0 2.82-2.08 4.56-4.9 4.56-.58 0-1.1-.03-1.88-.34-.64-.27-1.12-.3-1.5-.3-.37 0-.74.16-.98.7h-.56l.7-5.4h.53c.48 3.23 1.63 4.62 3.4 4.62 1.6 0 2.6-.95 2.6-2.62 0-1.1-.6-2.24-1.9-3.9-1.48-1.85-2.16-3.38-2.16-4.47 0-2.26 1.6-3.7 4.13-3.7.58 0 1.06.1 1.9.35.65.2.96.24 1.23.24.5 0 .75-.15 1.02-.62h.48M370.06 291.84l.4 1.94c2.4-3.64 3.65-4.87 5.15-4.87.83 0 1.4.52 1.4 1.27 0 .72-.47 1.23-1.15 1.23-.65 0-.96-.58-1.77-.58-.62 0-1.84 1.5-3.34 4.12 0 .24.07.7.27 1.53l1.1 4.56c.24.95.55 1.4 1.02 1.4.45 0 .82-.34 1.6-1.36.3-.4.45-.62.72-.96l.5.32c-1.97 3.06-2.85 3.88-4.14 3.88-1.1 0-1.6-.6-2-2.32l-1-4.05-3 4.05c-1.5 2-2.17 2.32-3.23 2.32s-1.7-.55-1.7-1.43c0-.68.47-1.23 1.16-1.23.3 0 .64.14 1.08.38.36.2.7.3.9.3.37 0 1.02-.64 1.74-1.66l2.8-3.95-.97-4.2c-.47-2.06-.7-2.33-1.56-2.33-.26 0-.67.07-1.32.24l-.6.18-.1-.54.36-.14c2.08-.75 3.2-1 3.98-1 .85 0 1.26.62 1.74 2.94M386.94 289.35h3.17c.76-2.4 1.34-4.28 2.46-5.88 1.02-1.47 2.42-2.63 4.5-2.63 1.66 0 2.92.9 2.92 2.1 0 .76-.64 1.48-1.43 1.48-.6 0-1.26-.5-1.26-1.33 0-.6.33-.76.33-1.06 0-.28-.27-.45-.74-.45-1.92 0-3.18 2.38-4.17 7.75h3.64l-.2 1.1h-3.68l-2.46 10.9c-1.43 6.3-3.7 9.62-6.8 9.62-1.54 0-2.7-.88-2.7-2.07 0-.8.58-1.43 1.3-1.43.78 0 1.3.54 1.3 1.25 0 .45-.3.62-.3 1 0 .3.26.54.67.54 1.44 0 2.53-1.84 3.3-5.52l3-14.3h-3.1"/><path d="M209.93 379.74c-5.48 0-9.93 4.44-9.93 9.93v59.6c0 5.5 4.45 9.94 9.93 9.94m115.18 0c5.5 0 9.94-4.44 9.94-9.93v-59.6c0-5.5-4.44-9.93-9.93-9.93" stroke="#000" stroke-width="2" fill="none"/><path d="M238.37 398.94h71.1v41.48h-71.1z" fill="#fff" fill-opacity="0"/><path d="M256.08 405.7l.8 3.76c4.6-7.03 7.02-9.4 9.9-9.4 1.6 0 2.7 1 2.7 2.43 0 1.37-.9 2.36-2.23 2.36-1.25 0-1.84-1.12-3.4-1.12-1.2 0-3.56 2.9-6.45 7.95 0 .45.13 1.37.52 2.95l2.1 8.8c.46 1.85 1.06 2.7 1.98 2.7.85 0 1.57-.66 3.08-2.63.6-.8.86-1.18 1.38-1.84l1 .6c-3.82 5.9-5.53 7.5-8.03 7.5-2.1 0-3.1-1.2-3.88-4.48l-1.9-7.82-5.78 7.82c-2.9 3.87-4.2 4.47-6.25 4.47-2.03 0-3.28-1.06-3.28-2.76 0-1.3.92-2.36 2.23-2.36.6 0 1.25.26 2.1.72.66.4 1.32.6 1.7.6.74 0 1.98-1.25 3.36-3.23l5.4-7.62-1.85-8.14c-.92-3.94-1.38-4.47-3.02-4.47-.53 0-1.3.12-2.56.45l-1.2.33-.18-1.05.72-.26c4-1.45 6.18-1.9 7.7-1.9 1.63 0 2.42 1.17 3.34 5.64M302 434.06l-.22.33c-2.47 3.43-4.5 4.96-6.7 4.96-1.2 0-1.85-.74-1.85-2.14 0-.46.13-1.25.6-3.07l2.7-10.54c.23-.92.32-1.53.32-1.76 0-.56-.42-.98-.93-.98-1.4 0-3.76 2.2-6.1 5.44-2.26 3.2-3.2 5.48-5 12.64h-3.5l1.26-4.32c2.05-7.06 3.16-12 3.16-12.6 0-.74-.4-1.16-1.02-1.16-1.58 0-4.32 2.7-6.92 6.65-1.58 2.43-2.23 4.1-4.46 11.44h-3.5l2-6.7c1.87-6.17 2.57-10.03 2.57-10.6 0-.68-.64-1-1.9-1h-1.16v-.75l7.53-1.45.14.1-2.7 9.7c4.15-6.74 7.4-9.8 10.23-9.8 1.86 0 2.8 1.1 2.8 2.8 0 .87-.6 3.47-1.87 7.05 3.26-5.16 5.16-7.48 7.44-8.92 1.1-.7 2-.93 2.93-.93 1.72 0 2.7 1.25 2.7 2.93 0 .32-.1 1.06-.15 1.3l-3.16 11.66c-.28 1.07-.46 1.9-.46 2.1 0 .5.18.73.55.73.8 0 1.64-.74 3.04-2.46l.97-1.2"/><path d="M337.52 440h60v31.3h-60z" fill="#fff" fill-opacity="0"/><path d="M349.98 448.6l-.68 4.78h-.54c-.34-2.83-1.37-3.95-3.03-3.95-1.2 0-2 .68-2 1.94 0 .92.5 1.9 1.83 3.47 1.7 1.98 2.3 3.3 2.3 4.63 0 2.83-2.07 4.56-4.9 4.56-.57 0-1.08-.03-1.86-.34-.65-.28-1.13-.3-1.5-.3-.38 0-.75.16-1 .7h-.53l.68-5.4h.54c.47 3.22 1.63 4.62 3.4 4.62 1.6 0 2.58-.95 2.58-2.62 0-1.1-.57-2.25-1.9-3.92-1.47-1.83-2.15-3.37-2.15-4.46 0-2.24 1.6-3.67 4.12-3.67.58 0 1.06.1 1.9.34.66.2.96.23 1.23.23.5 0 .75-.14 1.03-.62h.48M367.58 451.58l.4 1.94c2.4-3.65 3.65-4.87 5.15-4.87.82 0 1.4.5 1.4 1.26 0 .72-.48 1.23-1.16 1.23-.65 0-.95-.58-1.77-.58-.6 0-1.84 1.5-3.34 4.12 0 .24.07.72.27 1.54l1.1 4.57c.23.95.54 1.4 1.02 1.4.44 0 .8-.35 1.6-1.37l.7-.95.52.3c-1.97 3.07-2.86 3.88-4.15 3.88-1.1 0-1.6-.6-2-2.3l-1-4.06-3 4.05c-1.5 2-2.17 2.3-3.23 2.3s-1.7-.53-1.7-1.4c0-.7.47-1.24 1.15-1.24.3 0 .64.14 1.1.37.33.2.67.3.87.3.38 0 1.02-.64 1.74-1.66l2.8-3.96-.96-4.22c-.48-2.04-.72-2.3-1.57-2.3-.27 0-.68.06-1.33.23l-.6.17-.1-.55.36-.14c2.08-.74 3.2-.98 4-.98.84 0 1.25.6 1.72 2.93M384.47 449.1h3.16c.75-2.43 1.33-4.3 2.45-5.9 1.03-1.46 2.42-2.62 4.5-2.62 1.67 0 2.93.88 2.93 2.1 0 .76-.64 1.47-1.42 1.47-.62 0-1.26-.5-1.26-1.32 0-.58.34-.75.34-1.06 0-.27-.28-.44-.75-.44-1.9 0-3.16 2.38-4.15 7.76h3.65l-.2 1.08H390l-2.46 10.9c-1.43 6.3-3.7 9.63-6.8 9.63-1.54 0-2.7-.88-2.7-2.07 0-.78.6-1.43 1.3-1.43.78 0 1.3.55 1.3 1.26 0 .44-.3.6-.3 1 0 .3.26.53.67.53 1.43 0 2.52-1.85 3.3-5.52l3-14.3h-3.1"/><path d="M220 379.74v-80h80.8v80z" stroke="#000" stroke-opacity="0" stroke-width="2" fill="#fff" fill-opacity="0"/><use xlink:href="#a" transform="matrix(6.123233995736766e-17,-1,1,6.123233995736766e-17,225,374.7356573510118) translate(12.777777777777775 46.16666666666667)"/><path d="M420 471.3h116.9v31.27H420z" fill="#fff" fill-opacity="0"/><path d="M443.97 491.37l-.17.24c-1.8 2.53-3.3 3.65-4.9 3.65-.9 0-1.37-.54-1.37-1.56 0-.35.1-.93.44-2.26l1.98-7.73c.17-.67.24-1.1.24-1.28 0-.4-.32-.72-.7-.72-1 0-2.75 1.6-4.45 4-1.67 2.34-2.35 4-3.68 9.25h-2.55l.92-3.17c1.5-5.17 2.3-8.78 2.3-9.22 0-.55-.3-.86-.74-.86-1.16 0-3.16 1.98-5.07 4.87-1.16 1.77-1.63 3-3.27 8.38h-2.55l1.47-4.9c1.36-4.53 1.87-7.36 1.87-7.77 0-.5-.47-.75-1.4-.75h-.84V481l5.5-1.07.1.07-1.96 7.12c3.03-4.94 5.4-7.2 7.5-7.2 1.35 0 2.03.83 2.03 2.06 0 .64-.44 2.55-1.36 5.17 2.4-3.78 3.8-5.48 5.46-6.53.8-.52 1.46-.7 2.14-.7 1.26 0 1.98.93 1.98 2.16 0 .24-.07.78-.1.95l-2.32 8.55c-.2.78-.34 1.4-.34 1.53 0 .38.14.55.4.55.6 0 1.2-.54 2.22-1.8l.72-.9M461.4 482.86l.4 1.94c2.4-3.64 3.65-4.87 5.14-4.87.82 0 1.4.52 1.4 1.26 0 .7-.48 1.22-1.16 1.22-.64 0-.95-.58-1.77-.58-.6 0-1.83 1.5-3.32 4.12 0 .24.06.7.27 1.53l1.1 4.55c.23.96.53 1.4 1 1.4.45 0 .83-.34 1.6-1.36.32-.42.45-.63.72-.97l.52.3c-2 3.07-2.87 3.9-4.17 3.9-1.1 0-1.6-.62-2-2.32l-1-4.04-3 4.05c-1.5 2.02-2.17 2.32-3.22 2.32-1.05 0-1.7-.54-1.7-1.43 0-.7.48-1.23 1.16-1.23.3 0 .65.13 1.1.37.33.2.67.3.88.3.37 0 1.02-.64 1.73-1.66l2.8-3.95-.96-4.22c-.47-2.03-.7-2.3-1.56-2.3-.27 0-.68.06-1.32.23l-.62.17-.1-.54.38-.14c2.07-.75 3.2-1 3.98-1 .85 0 1.26.63 1.74 2.94M489.34 479.9l-.68 4.77h-.54c-.34-2.83-1.36-3.95-3.03-3.95-1.2 0-2.02.68-2.02 1.94 0 .92.5 1.9 1.84 3.47 1.7 1.97 2.3 3.3 2.3 4.63 0 2.83-2.06 4.56-4.9 4.56-.57 0-1.08-.03-1.86-.34-.65-.27-1.12-.3-1.5-.3-.37 0-.75.17-1 .7h-.53l.68-5.4h.56c.47 3.23 1.63 4.63 3.4 4.63 1.6 0 2.6-.95 2.6-2.6 0-1.1-.6-2.26-1.92-3.93-1.46-1.84-2.14-3.37-2.14-4.46 0-2.24 1.6-3.67 4.1-3.67.6 0 1.07.1 1.92.34.65.2.95.24 1.23.24.5 0 .75-.12 1.02-.6h.47M506.94 482.86l.4 1.94c2.4-3.64 3.66-4.87 5.15-4.87.8 0 1.4.52 1.4 1.26 0 .7-.5 1.22-1.17 1.22-.64 0-.95-.58-1.77-.58-.6 0-1.84 1.5-3.33 4.12 0 .24.06.7.27 1.53l1.1 4.55c.23.96.53 1.4 1 1.4.45 0 .83-.34 1.6-1.36.3-.42.45-.63.72-.97l.5.3c-1.96 3.07-2.85 3.9-4.14 3.9-1.1 0-1.6-.62-2-2.32l-1-4.04-3 4.05c-1.5 2.02-2.17 2.32-3.22 2.32-1.06 0-1.7-.54-1.7-1.43 0-.7.47-1.23 1.15-1.23.32 0 .66.13 1.1.37.34.2.68.3.9.3.36 0 1-.64 1.72-1.66l2.8-3.95-.96-4.22c-.48-2.03-.72-2.3-1.57-2.3-.28 0-.7.06-1.33.23l-.62.17-.1-.54.38-.14c2.07-.75 3.2-1 3.98-1 .86 0 1.27.63 1.74 2.94M523.83 480.38H527c.74-2.42 1.32-4.3 2.45-5.9 1.02-1.46 2.4-2.6 4.5-2.6 1.66 0 2.92.87 2.92 2.1 0 .75-.65 1.46-1.43 1.46-.6 0-1.26-.5-1.26-1.33 0-.57.34-.74.34-1.04 0-.27-.27-.44-.75-.44-1.9 0-3.17 2.38-4.15 7.76h3.64l-.2 1.1h-3.68l-2.45 10.88c-1.43 6.3-3.7 9.63-6.8 9.63-1.54 0-2.7-.9-2.7-2.08 0-.8.58-1.43 1.3-1.43.78 0 1.3.53 1.3 1.25 0 .44-.32.6-.32.98 0 .3.28.55.7.55 1.42 0 2.5-1.84 3.3-5.52l3-14.3h-3.1"/><path d="M589.6 139.74h60.6v44.75h-60.6z" fill="#fff" fill-opacity="0"/><path d="M607.12 157.6l1.38 7.24c5.6-9.26 8.02-14 8.02-16.9 0-.9-.46-1.3-1.7-2.1-1.32-.85-1.72-1.5-1.72-2.55 0-1.46 1.12-2.45 2.63-2.45 1.97 0 3.42 1.65 3.42 3.62 0 3.74-3.16 10.97-8.6 20.04-6.84 11.32-13.88 18.87-17.62 18.87-1.97 0-3.35-1.1-3.35-2.82 0-1.45 1.1-2.63 2.56-2.63 2.3 0 2.3 1.84 4 1.84.86 0 1.65-.53 3.16-2.17 1.2-1.26 4.14-5.14 4.67-6 .4-.78.66-1.57.66-2.3 0-2.62-3.62-17.34-5.4-21.8-1.24-3.23-2.43-4.2-5.05-4.2-.73 0-1.32.05-2.04.25v-1.12c.72-.13 1.44-.26 2.1-.4 1.32-.26 3.48-.65 7.03-1.18h.27c.98 0 4.47 10.9 5.58 16.76M642.46 164.4c0 8-2.93 15.98-10.5 15.98-7.95 0-10.5-8.64-10.5-16.26 0-8.22 3.2-15.8 10.68-15.8 6.1 0 10.32 6.55 10.32 16.08m-4.47.23c0-9.66-2.05-15.1-6.14-15.1-3.86 0-5.95 5.48-5.95 14.92 0 9.43 2.06 14.73 6.05 14.73 3.95 0 6.04-5.35 6.04-14.55"/><path d="M589.8 239.2h60.6v44.76h-60.6z" fill="#fff" fill-opacity="0"/><path d="M607.32 257.08l1.38 7.23c5.6-9.25 8.02-14 8.02-16.88 0-.92-.46-1.3-1.7-2.1-1.33-.85-1.72-1.5-1.72-2.56 0-1.45 1.12-2.43 2.63-2.43 1.97 0 3.42 1.64 3.42 3.6 0 3.76-3.16 11-8.6 20.05-6.85 11.3-13.88 18.86-17.63 18.86-1.97 0-3.35-1.1-3.35-2.82 0-1.45 1.12-2.63 2.57-2.63 2.3 0 2.3 1.83 4 1.83.86 0 1.65-.53 3.16-2.17 1.18-1.25 4.14-5.12 4.67-5.98.4-.8.65-1.58.65-2.3 0-2.63-3.6-17.35-5.4-21.82-1.24-3.22-2.42-4.2-5.05-4.2-.72 0-1.3.06-2.03.26v-1.12c.72-.13 1.44-.26 2.1-.4 1.3-.25 3.48-.65 7.03-1.17h.26c1 0 4.47 10.9 5.6 16.75M638.84 279.2h-12.82v-.7c3.43-.18 4.4-1.15 4.4-3.7v-20.87c0-1.58-.4-2.28-1.38-2.28-.47 0-1.26.23-2.1.56l-1.25.47v-.65l8.3-4.23.43.13v27.74c0 2 .93 2.84 4.4 2.84v.7"/><path d="M589.8 398.94h70.9v44.76h-70.9z" fill="#fff" fill-opacity="0"/><path d="M607.32 416.82l1.38 7.23c5.6-9.27 8.02-14 8.02-16.9 0-.9-.46-1.3-1.7-2.1-1.33-.85-1.72-1.5-1.72-2.56 0-1.45 1.12-2.44 2.63-2.44 1.97 0 3.42 1.64 3.42 3.62 0 3.74-3.16 10.97-8.6 20.04-6.85 11.3-13.88 18.86-17.63 18.86-1.97 0-3.35-1.12-3.35-2.83 0-1.44 1.12-2.62 2.57-2.62 2.3 0 2.3 1.84 4 1.84.86 0 1.65-.53 3.16-2.17 1.18-1.25 4.14-5.13 4.67-5.98.4-.8.65-1.58.65-2.3 0-2.63-3.6-17.35-5.4-21.82-1.24-3.22-2.42-4.2-5.05-4.2-.72 0-1.3.06-2.03.26v-1.12c.72-.13 1.44-.26 2.1-.4 1.3-.26 3.48-.65 7.03-1.18h.26c1 0 4.47 10.9 5.6 16.76M653.25 434.06l-.24.33c-2.45 3.43-4.5 4.96-6.68 4.96-1.2 0-1.86-.74-1.86-2.14 0-.46.14-1.25.6-3.07l2.7-10.54c.24-.92.33-1.53.33-1.76 0-.56-.43-.98-.94-.98-1.4 0-3.76 2.2-6.1 5.44-2.26 3.2-3.2 5.48-5 12.64h-3.5l1.26-4.32c2.05-7.06 3.16-12 3.16-12.6 0-.74-.42-1.16-1.02-1.16-1.58 0-4.32 2.7-6.92 6.65-1.58 2.43-2.23 4.1-4.46 11.44h-3.5l2-6.7c1.87-6.17 2.56-10.03 2.56-10.6 0-.68-.65-1-1.9-1h-1.16v-.75l7.53-1.45.14.1-2.7 9.7c4.15-6.74 7.4-9.8 10.23-9.8 1.86 0 2.8 1.1 2.8 2.8 0 .87-.6 3.47-1.87 7.05 3.26-5.16 5.16-7.48 7.44-8.92 1.1-.7 2-.93 2.92-.93 1.72 0 2.7 1.25 2.7 2.93 0 .32-.1 1.06-.14 1.3l-3.16 11.66c-.28 1.07-.46 1.9-.46 2.1 0 .5.18.73.55.73.8 0 1.63-.74 3.02-2.46l.98-1.2"/><path d="M569.58 379.33v-80h81.57v80z" stroke="#000" stroke-opacity="0" stroke-width="2" fill="#fff" fill-opacity="0"/><use xlink:href="#a" transform="matrix(6.123233995736766e-17,-1,1,6.123233995736766e-17,574.5769116992117,374.32855092558214) translate(12.777777777777775 46.66666666666667)"/><path d="M680 471.3h73.92v24.53H680z" fill="#fff" fill-opacity="0"/><path d="M703.97 491.3l-.17.24c-1.8 2.52-3.3 3.65-4.9 3.65-.9 0-1.37-.56-1.37-1.58 0-.34.1-.92.44-2.25l1.98-7.72c.17-.7.24-1.13.24-1.3 0-.4-.32-.7-.7-.7-1 0-2.75 1.6-4.45 3.97-1.67 2.35-2.35 4.02-3.68 9.26h-2.55l.92-3.17c1.5-5.16 2.3-8.77 2.3-9.2 0-.56-.3-.86-.74-.86-1.16 0-3.16 1.97-5.07 4.86-1.16 1.77-1.63 3-3.27 8.38h-2.55l1.47-4.9c1.36-4.53 1.87-7.36 1.87-7.76 0-.52-.47-.75-1.4-.75h-.84v-.55l5.5-1.05.1.06-1.96 7.12c3.03-4.94 5.4-7.18 7.5-7.18 1.35 0 2.03.8 2.03 2.04 0 .66-.44 2.56-1.36 5.18 2.4-3.78 3.8-5.48 5.46-6.53.8-.5 1.46-.68 2.14-.68 1.26 0 1.98.92 1.98 2.14 0 .25-.07.8-.1.96l-2.32 8.55c-.2.8-.34 1.4-.34 1.54 0 .38.14.55.4.55.6 0 1.2-.56 2.22-1.82l.72-.88M721.4 482.8l.4 1.93c2.4-3.64 3.65-4.86 5.14-4.86.82 0 1.4.5 1.4 1.26 0 .7-.48 1.22-1.16 1.22-.64 0-.95-.58-1.77-.58-.6 0-1.83 1.5-3.32 4.12 0 .23.06.7.27 1.52l1.1 4.57c.23.94.53 1.38 1 1.38.45 0 .83-.34 1.6-1.36.32-.4.45-.6.72-.95l.52.3c-2 3.07-2.87 3.88-4.17 3.88-1.1 0-1.6-.6-2-2.3l-1-4.06-3 4.04c-1.5 2-2.17 2.3-3.22 2.3-1.05 0-1.7-.53-1.7-1.42 0-.68.48-1.22 1.16-1.22.3 0 .65.13 1.1.37.33.2.67.3.88.3.37 0 1.02-.64 1.73-1.66l2.8-3.94-.96-4.22c-.47-2.04-.7-2.3-1.56-2.3-.27 0-.68.05-1.32.22l-.62.17-.1-.54.38-.15c2.07-.75 3.2-.98 3.98-.98.85 0 1.26.6 1.74 2.92M750.3 494.88h-9.4v-.5c2.52-.15 3.24-.86 3.24-2.73v-15.3c0-1.15-.3-1.66-1.03-1.66-.33 0-.9.16-1.52.4l-.92.34v-.48l6.1-3.1.3.1v20.33c0 1.46.68 2.07 3.24 2.07v.5"/><path d="M451 160h80.5M451.03 160H450" stroke="#000" stroke-width="2" fill="none"/><path d="M546.76 160l-14.26 4.64v-9.28z" stroke="#000" stroke-width="2"/><path d="M451 420h80.5M451.03 420H450" stroke="#000" stroke-width="2" fill="none"/><path d="M546.76 420l-14.26 4.64v-9.28z" stroke="#000" stroke-width="2"/><path d="M451 260h80.5M451.03 260H450" stroke="#000" stroke-width="2" fill="none"/><path d="M546.76 260l-14.26 4.64v-9.28z" stroke="#000" stroke-width="2"/><defs><path d="M33 0v-38h34V0H33" id="b"/><g id="a"><use transform="matrix(0.14814814814814817,0,0,0.14814814814814817,0,0)" xlink:href="#b"/><use transform="matrix(0.14814814814814817,0,0,0.14814814814814817,14.814814814814817,0)" xlink:href="#b"/><use transform="matrix(0.14814814814814817,0,0,0.14814814814814817,29.629629629629633,0)" xlink:href="#b"/></g></defs></g></svg>