<svg xmlns="http://www.w3.org/2000/svg" xmlns:xlink="http://www.w3.org/1999/xlink" xmlns:lucid="lucid" width="762" height="576"><g transform="translate(-300 -80)" lucid:page-tab-id="0_0"><g fill="none"><path d="M340 526.2v-20h681.63v20z"/><path d="M1021.63 506.2c0 23.53-19.07 42.6-42.6 42.6h-255.6c-23.54 0-42.6 19.08-42.6 42.6 0-23.52-19.1-42.6-42.62-42.6H382.6c-23.53 0-42.6-19.07-42.6-42.6" stroke="#000" stroke-width="2"/></g><path d="M344.33 265c0-2.76 2.24-5 5-5h84.5c2.75 0 5 2.24 5 5v53c0 2.75-2.25 5-5 5h-84.5c-2.76 0-5-2.25-5-5z" stroke="#000" fill="#fff"/><use xlink:href="#a" transform="matrix(1,0,0,1,349.3290393724041,265) translate(5.149999999999999 30.1)"/><use xlink:href="#b" transform="matrix(1,0,0,1,349.3290393724041,265) translate(49 30.1)"/><path d="M361.33 369.43c-5 0-9.05 4.04-9.05 9.04v137.87c0 5 4.05 9.04 9.05 9.04m54.26 0c4.98 0 9.03-4.04 9.03-9.04V378.47c0-5-4.05-9.04-9.04-9.04" stroke="#000" fill="none"/><path d="M356.4 500h64.12v25.38H356.4z" fill="#fff" fill-opacity="0"/><path d="M365.84 503.6l.42 2c2.45-3.74 3.75-5 5.3-5 .83 0 1.43.52 1.43 1.3 0 .73-.5 1.25-1.2 1.25-.67 0-.98-.6-1.82-.6-.64 0-1.9 1.55-3.44 4.25 0 .24.07.73.28 1.58l1.12 4.7c.25.97.56 1.43 1.05 1.43.45 0 .83-.34 1.64-1.4.32-.42.46-.63.74-.98l.52.32c-2.03 3.15-2.94 4-4.27 4-1.12 0-1.65-.64-2.07-2.4l-1.02-4.16-3.08 4.17c-1.54 2.07-2.24 2.38-3.33 2.38-1.08 0-1.75-.56-1.75-1.47 0-.7.5-1.26 1.2-1.26.3 0 .66.14 1.1.4.36.2.7.3.92.3.4 0 1.05-.66 1.8-1.72l2.86-4.06-.98-4.34c-.5-2.1-.73-2.4-1.6-2.4-.3 0-.7.08-1.38.26l-.63.17-.1-.55.38-.14c2.14-.76 3.3-1 4.1-1 .88 0 1.3.63 1.8 3M379.42 506.46c0 .7-.57 1.27-1.2 1.27-.73 0-1.2-.52-1.2-1.32 0-.75.5-1.3 1.17-1.3.65 0 1.22.65 1.22 1.36m-1.04 12.02l.33.27c-1.36 2.08-2.15 2.83-3.4 2.83-.8 0-1.2-.45-1.2-1.37 0-.48.17-1.35.54-2.74l1.2-4.38c.12-.45.2-.9.2-1.1 0-.5-.23-.56-1.57-.6V511c.97-.08 1.46-.15 3.96-.62l.1.07-2.33 8.5c-.12.42-.24.74-.24 1.1 0 .24.14.36.34.36.42 0 1.02-.5 2.08-1.92M381.83 524.8l-.25-.47c1.36-.92 2.06-1.84 2.06-2.65 0-.18-.15-.33-.35-.33-.2 0-.46.1-.73.1-.92 0-1.44-.42-1.44-1.26 0-.85.6-1.42 1.5-1.42 1.1 0 1.97.86 1.97 2.15 0 1.5-1.06 3.05-2.77 3.87M397.78 513.13c0 4.26-1.56 8.52-5.6 8.52-4.23 0-5.6-4.6-5.6-8.67 0-4.4 1.7-8.42 5.7-8.42 3.25 0 5.5 3.5 5.5 8.57m-2.38.12c0-5.15-1.1-8.05-3.27-8.05-2.05 0-3.17 2.92-3.17 7.95s1.1 7.86 3.22 7.86c2.1 0 3.22-2.84 3.22-7.75M400.43 524.8l-.24-.47c1.35-.92 2.04-1.84 2.04-2.65 0-.18-.15-.33-.34-.33-.2 0-.45.1-.72.1-.92 0-1.44-.42-1.44-1.26 0-.85.6-1.42 1.5-1.42 1.1 0 1.97.86 1.97 2.15 0 1.5-1.06 3.05-2.77 3.87M416.4 513.13c0 4.26-1.57 8.52-5.6 8.52-4.25 0-5.6-4.6-5.6-8.67 0-4.4 1.7-8.42 5.7-8.42 3.24 0 5.5 3.5 5.5 8.57m-2.4.12c0-5.15-1.08-8.05-3.26-8.05-2.06 0-3.17 2.92-3.17 7.95s1.1 7.86 3.22 7.86c2.1 0 3.2-2.84 3.2-7.75"/><path d="M364.67 419v-26h47.57v26z" stroke="#000" stroke-opacity="0" fill="#fff" fill-opacity="0"/><use xlink:href="#c" transform="matrix(6.123233995736766e-17,-1,1,6.123233995736766e-17,369.6745265002003,413.99999996850386) translate(-1.2592592592592595 23.444444444444443)"/><path d="M357.48 466.05h64.12v25.4h-64.12z" fill="#fff" fill-opacity="0"/><path d="M366.92 469.66l.42 2c2.46-3.75 3.75-5 5.3-5 .84 0 1.43.52 1.43 1.3 0 .72-.5 1.25-1.2 1.25-.66 0-.97-.6-1.8-.6-.64 0-1.9 1.56-3.45 4.25 0 .25.07.74.28 1.58l1.13 4.7c.24.98.56 1.43 1.05 1.43.45 0 .84-.35 1.64-1.4.32-.42.46-.63.74-.98l.53.3c-2.05 3.17-2.96 4-4.3 4-1.1 0-1.64-.62-2.06-2.37l-1-4.16-3.1 4.17c-1.54 2.07-2.24 2.4-3.33 2.4-1.07 0-1.74-.57-1.74-1.48 0-.7.5-1.26 1.2-1.26.3 0 .66.14 1.12.38.35.2.7.32.9.32.4 0 1.06-.67 1.8-1.72l2.87-4.06-.98-4.35c-.5-2.1-.74-2.38-1.62-2.38-.28 0-.7.07-1.36.24l-.64.17-.1-.56.38-.13c2.13-.77 3.3-1.02 4.1-1.02.87 0 1.3.63 1.78 3M380.5 472.52c0 .7-.56 1.26-1.2 1.26-.73 0-1.2-.52-1.2-1.3s.5-1.32 1.17-1.32c.67 0 1.24.64 1.24 1.36m-1.03 12l.32.3c-1.37 2.07-2.17 2.8-3.4 2.8-.82 0-1.22-.43-1.22-1.35 0-.5.17-1.36.55-2.75l1.18-4.4c.14-.43.24-.88.24-1.08 0-.5-.25-.57-1.6-.6v-.4c.98-.06 1.47-.14 3.98-.6l.1.07-2.33 8.5c-.14.43-.26.75-.26 1.1 0 .24.15.37.35.37.4 0 1-.52 2.07-1.94M382.9 490.85l-.24-.47c1.37-.9 2.06-1.83 2.06-2.65 0-.17-.15-.32-.35-.32-.2 0-.44.1-.72.1-.9 0-1.43-.4-1.43-1.26 0-.84.6-1.4 1.48-1.4 1.12 0 2 .86 2 2.15 0 1.47-1.08 3.04-2.8 3.85M398.87 479.18c0 4.26-1.56 8.53-5.6 8.53-4.24 0-5.6-4.6-5.6-8.67 0-4.38 1.7-8.42 5.7-8.42 3.24 0 5.5 3.5 5.5 8.58m-2.38.13c0-5.15-1.1-8.05-3.28-8.05-2.06 0-3.17 2.93-3.17 7.96 0 5.04 1.1 7.86 3.22 7.86 2.1 0 3.22-2.85 3.22-7.75M401.52 490.85l-.25-.47c1.36-.9 2.06-1.83 2.06-2.65 0-.17-.15-.32-.35-.32-.2 0-.45.1-.72.1-.92 0-1.44-.4-1.44-1.26 0-.84.6-1.4 1.5-1.4 1.1 0 1.97.86 1.97 2.15 0 1.47-1.07 3.04-2.78 3.85M415.44 487.36h-6.84V487c1.84-.1 2.36-.63 2.36-2V473.9c0-.84-.23-1.2-.75-1.2-.23 0-.66.1-1.1.28l-.67.25v-.33l4.43-2.26.23.1v14.78c0 1.06.48 1.5 2.34 1.5v.38"/><path d="M359.36 369.43h62.24v27h-62.24z" fill="#fff" fill-opacity="0"/><path d="M368.8 373.04l.43 2c2.45-3.76 3.75-5.02 5.3-5.02.83 0 1.42.53 1.42 1.3 0 .73-.5 1.26-1.2 1.26-.65 0-.97-.6-1.8-.6-.64 0-1.9 1.55-3.44 4.24 0 .25.08.74.3 1.58l1.1 4.7c.25.98.57 1.43 1.06 1.43.46 0 .84-.35 1.65-1.4.32-.42.46-.63.74-.98l.53.32c-2.03 3.15-2.95 4-4.28 4-1.13 0-1.65-.64-2.07-2.4l-1.02-4.16-3.07 4.18c-1.55 2.06-2.25 2.38-3.33 2.38-1.1 0-1.75-.56-1.75-1.47 0-.7.5-1.27 1.2-1.27.3 0 .65.14 1.1.38.36.22.7.33.92.33.38 0 1.05-.67 1.8-1.72l2.86-4.05-.98-4.35c-.5-2.1-.74-2.38-1.6-2.38-.3 0-.7.07-1.38.24l-.63.18-.1-.56.38-.14c2.14-.77 3.3-1.02 4.1-1.02.88 0 1.3.63 1.8 3.02M382.4 375.9c0 .68-.58 1.25-1.22 1.25-.72 0-1.2-.52-1.2-1.3s.5-1.32 1.17-1.32c.67 0 1.24.64 1.24 1.36m-1.05 12l.32.28c-1.36 2.08-2.15 2.82-3.4 2.82-.8 0-1.2-.44-1.2-1.36 0-.5.17-1.36.54-2.75l1.2-4.4c.12-.44.22-.9.22-1.1 0-.48-.25-.56-1.6-.58v-.4c.98-.07 1.48-.15 3.98-.62l.1.08-2.33 8.5c-.12.42-.25.74-.25 1.1 0 .23.15.36.35.36.42 0 1-.52 2.08-1.93M384.8 394.22l-.25-.47c1.36-.9 2.05-1.83 2.05-2.65 0-.17-.15-.32-.34-.32-.2 0-.45.1-.72.1-.92 0-1.44-.42-1.44-1.27 0-.83.6-1.4 1.5-1.4 1.1 0 1.97.87 1.97 2.16 0 1.48-1.07 3.05-2.78 3.86M400.75 382.55c0 4.27-1.56 8.53-5.6 8.53-4.24 0-5.6-4.6-5.6-8.67 0-4.38 1.7-8.42 5.7-8.42 3.24 0 5.5 3.5 5.5 8.57m-2.38.13c0-5.16-1.1-8.05-3.27-8.05-2.06 0-3.17 2.92-3.17 7.95s1.1 7.85 3.22 7.85c2.1 0 3.22-2.85 3.22-7.75M403.4 394.22l-.25-.47c1.36-.9 2.06-1.83 2.06-2.65 0-.17-.14-.32-.34-.32s-.44.1-.72.1c-.9 0-1.43-.42-1.43-1.27 0-.83.6-1.4 1.5-1.4 1.1 0 1.97.87 1.97 2.16 0 1.48-1.06 3.05-2.77 3.86"/><path d="M408.58 380.13h2.3c.55-1.76.97-3.13 1.8-4.3.73-1.06 1.75-1.9 3.26-1.9 1.2 0 2.13.65 2.13 1.54 0 .54-.47 1.06-1.04 1.06-.45 0-.92-.37-.92-.96 0-.42.26-.55.26-.77 0-.2-.2-.32-.55-.32-1.37 0-2.3 1.73-3 5.65h2.64l-.15.8h-2.68l-1.8 7.92c-1.03 4.58-2.7 7-4.94 7-1.12 0-1.96-.64-1.96-1.5 0-.57.42-1.04.94-1.04.57 0 .94.4.94.92 0 .33-.22.45-.22.72 0 .22.2.4.5.4 1.04 0 1.83-1.34 2.4-4.02l2.18-10.4h-2.26"/><path d="M480 265c0-2.76 2.24-5 5-5h84.5c2.75 0 5 2.24 5 5v53c0 2.75-2.25 5-5 5H485c-2.76 0-5-2.25-5-5z" stroke="#000" fill="#fff"/><use xlink:href="#a" transform="matrix(1,0,0,1,484.99999999999994,265) translate(5.149999999999999 30.1)"/><use xlink:href="#b" transform="matrix(1,0,0,1,484.99999999999994,265) translate(49 30.1)"/><path d="M500.1 369.43c-4.98 0-9.03 4.04-9.03 9.04v137.87c0 5 4.05 9.04 9.04 9.04m54.28 0c5 0 9.04-4.04 9.04-9.04V378.47c0-5-4.05-9.04-9.04-9.04" stroke="#000" fill="none"/><path d="M495.18 500h64.12v25.38h-64.12z" fill="#fff" fill-opacity="0"/><path d="M504.63 503.6l.42 2c2.45-3.74 3.75-5 5.3-5 .83 0 1.42.52 1.42 1.3 0 .73-.5 1.25-1.2 1.25-.65 0-.97-.6-1.8-.6-.64 0-1.9 1.55-3.44 4.25 0 .24.07.73.28 1.58l1.13 4.7c.24.97.56 1.43 1.05 1.43.46 0 .84-.34 1.65-1.4.3-.42.45-.63.73-.98l.53.32c-2.04 3.15-2.95 4-4.3 4-1.1 0-1.63-.64-2.05-2.4l-1.02-4.16-3.08 4.17c-1.54 2.07-2.25 2.38-3.33 2.38-1.1 0-1.75-.56-1.75-1.47 0-.7.5-1.26 1.2-1.26.3 0 .65.14 1.1.4.36.2.7.3.92.3.38 0 1.04-.66 1.78-1.72l2.87-4.06-.98-4.34c-.5-2.1-.74-2.4-1.6-2.4-.3 0-.7.08-1.38.26l-.64.17-.1-.55.38-.14c2.14-.76 3.3-1 4.1-1 .88 0 1.3.63 1.8 3M518.2 506.46c0 .7-.56 1.27-1.2 1.27-.72 0-1.2-.52-1.2-1.32 0-.75.5-1.3 1.17-1.3.67 0 1.24.65 1.24 1.36m-1.03 12.02l.32.27c-1.37 2.08-2.16 2.83-3.4 2.83-.82 0-1.22-.45-1.22-1.37 0-.48.18-1.35.55-2.74l1.2-4.38c.1-.45.2-.9.2-1.1 0-.5-.24-.56-1.57-.6V511c.96-.08 1.46-.15 3.96-.62l.1.07-2.33 8.5c-.13.42-.26.74-.26 1.1 0 .24.15.36.35.36.4 0 1-.5 2.07-1.92M520.6 524.8l-.23-.47c1.36-.92 2.05-1.84 2.05-2.65 0-.18-.15-.33-.34-.33-.2 0-.45.1-.72.1-.92 0-1.44-.42-1.44-1.26 0-.85.6-1.42 1.5-1.42 1.1 0 1.97.86 1.97 2.15 0 1.5-1.08 3.05-2.8 3.87M534.54 521.3h-6.84v-.37c1.83-.1 2.35-.62 2.35-1.98v-11.12c0-.85-.22-1.22-.74-1.22-.24 0-.66.14-1.1.3l-.67.26v-.35l4.43-2.24.22.07v14.8c0 1.06.5 1.5 2.36 1.5v.37M539.22 524.8l-.25-.47c1.37-.92 2.06-1.84 2.06-2.65 0-.18-.15-.33-.35-.33-.2 0-.44.1-.72.1-.9 0-1.43-.42-1.43-1.26 0-.85.6-1.42 1.48-1.42 1.13 0 2 .86 2 2.15 0 1.5-1.07 3.05-2.78 3.87M555.18 513.13c0 4.26-1.56 8.52-5.6 8.52-4.24 0-5.6-4.6-5.6-8.67 0-4.4 1.7-8.42 5.7-8.42 3.24 0 5.5 3.5 5.5 8.57m-2.38.12c0-5.15-1.1-8.05-3.27-8.05-2.06 0-3.17 2.92-3.17 7.95s1.1 7.86 3.22 7.86c2.1 0 3.22-2.84 3.22-7.75"/><path d="M498.85 468.88v-26h50.38v26z" stroke="#000" stroke-opacity="0" fill="#fff" fill-opacity="0"/><use xlink:href="#c" transform="matrix(6.123233995736766e-17,-1,1,6.123233995736766e-17,503.8528344521268,463.8781311865429) translate(-1.2592592592592595 24.944444444444443)"/><path d="M496.13 466.05h64.12v25.4h-64.12z" fill="#fff" fill-opacity="0"/><path d="M505.57 469.66l.42 2c2.44-3.75 3.74-5 5.28-5 .84 0 1.44.52 1.44 1.3 0 .72-.5 1.25-1.2 1.25-.66 0-.98-.6-1.82-.6-.63 0-1.9 1.56-3.43 4.25 0 .25.07.74.28 1.58l1.12 4.7c.25.98.56 1.43 1.05 1.43.46 0 .84-.35 1.65-1.4.3-.42.45-.63.73-.98l.53.3c-2.03 3.17-2.94 4-4.27 4-1.13 0-1.65-.62-2.07-2.37l-1.03-4.16-3.08 4.17c-1.55 2.07-2.25 2.4-3.34 2.4-1.1 0-1.75-.57-1.75-1.48 0-.7.5-1.26 1.2-1.26.3 0 .66.14 1.12.38.35.2.7.32.9.32.4 0 1.06-.67 1.8-1.72l2.87-4.06-1-4.35c-.48-2.1-.73-2.38-1.6-2.38-.28 0-.7.07-1.37.24l-.63.17-.1-.56.38-.13c2.14-.77 3.3-1.02 4.1-1.02.88 0 1.3.63 1.8 3M519.15 472.52c0 .7-.57 1.26-1.2 1.26-.73 0-1.2-.52-1.2-1.3s.5-1.32 1.16-1.32c.68 0 1.25.64 1.25 1.36m-1.04 12l.33.3c-1.36 2.07-2.15 2.8-3.4 2.8-.8 0-1.2-.43-1.2-1.35 0-.5.17-1.36.54-2.75l1.2-4.4c.1-.43.2-.88.2-1.08 0-.5-.24-.57-1.57-.6v-.4c.96-.06 1.46-.14 3.96-.6l.1.07-2.33 8.5c-.12.43-.25.75-.25 1.1 0 .24.15.37.35.37.42 0 1.02-.52 2.08-1.94M521.56 490.85l-.25-.47c1.37-.9 2.06-1.83 2.06-2.65 0-.17-.14-.32-.34-.32s-.45.1-.72.1c-.92 0-1.44-.4-1.44-1.26 0-.84.6-1.4 1.5-1.4 1.1 0 1.97.86 1.97 2.15 0 1.47-1.07 3.04-2.77 3.85M535.48 487.36h-6.84V487c1.83-.1 2.35-.63 2.35-2V473.9c0-.84-.23-1.2-.75-1.2-.25 0-.67.1-1.1.28l-.68.25v-.33l4.43-2.26.23.1v14.78c0 1.06.5 1.5 2.35 1.5v.38M540.16 490.85l-.25-.47c1.38-.9 2.07-1.83 2.07-2.65 0-.17-.15-.32-.35-.32-.2 0-.44.1-.7.1-.93 0-1.45-.4-1.45-1.26 0-.84.6-1.4 1.48-1.4 1.12 0 2 .86 2 2.15 0 1.47-1.08 3.04-2.8 3.85M554.1 487.36h-6.85V487c1.83-.1 2.35-.63 2.35-2V473.9c0-.84-.22-1.2-.74-1.2-.25 0-.67.1-1.12.28l-.67.25v-.33l4.44-2.26.23.1v14.78c0 1.06.5 1.5 2.36 1.5v.38"/><path d="M497.07 369.43h62.23v27h-62.23z" fill="#fff" fill-opacity="0"/><path d="M506.5 373.04l.43 2c2.45-3.76 3.75-5.02 5.3-5.02.83 0 1.43.53 1.43 1.3 0 .73-.5 1.26-1.2 1.26-.66 0-.97-.6-1.82-.6-.63 0-1.9 1.55-3.43 4.24 0 .25.08.74.3 1.58l1.1 4.7c.26.98.57 1.43 1.06 1.43.46 0 .84-.35 1.65-1.4l.75-.98.52.32c-2.03 3.15-2.94 4-4.27 4-1.12 0-1.65-.64-2.07-2.4l-1.02-4.16-3.07 4.18c-1.54 2.06-2.24 2.38-3.33 2.38-1.1 0-1.75-.56-1.75-1.47 0-.7.5-1.27 1.2-1.27.3 0 .66.14 1.1.38.36.22.7.33.92.33.4 0 1.05-.67 1.8-1.72l2.86-4.05-.98-4.35c-.5-2.1-.73-2.38-1.6-2.38-.3 0-.7.07-1.38.24l-.63.18-.1-.56.38-.14c2.14-.77 3.3-1.02 4.1-1.02.88 0 1.3.63 1.8 3.02M520.1 375.9c0 .68-.58 1.25-1.22 1.25-.72 0-1.2-.52-1.2-1.3s.5-1.32 1.17-1.32c.67 0 1.24.64 1.24 1.36m-1.05 12l.32.28c-1.36 2.08-2.15 2.82-3.4 2.82-.8 0-1.2-.44-1.2-1.36 0-.5.17-1.36.54-2.75l1.2-4.4c.12-.44.22-.9.22-1.1 0-.48-.24-.56-1.58-.58v-.4c.96-.07 1.46-.15 3.96-.62l.1.08-2.33 8.5c-.12.42-.25.74-.25 1.1 0 .23.15.36.35.36.42 0 1.02-.52 2.08-1.93M522.5 394.22l-.25-.47c1.36-.9 2.06-1.83 2.06-2.65 0-.17-.14-.32-.34-.32s-.45.1-.72.1c-.92 0-1.44-.42-1.44-1.27 0-.83.6-1.4 1.5-1.4 1.1 0 1.97.87 1.97 2.16 0 1.48-1.06 3.05-2.77 3.86M536.42 390.73h-6.84v-.37c1.84-.1 2.36-.62 2.36-1.98v-11.13c0-.84-.23-1.2-.75-1.2-.25 0-.68.1-1.12.28l-.67.25v-.34l4.44-2.26.23.08v14.8c0 1.05.5 1.5 2.35 1.5v.37M541.1 394.22l-.24-.47c1.36-.9 2.05-1.83 2.05-2.65 0-.17-.14-.32-.33-.32-.2 0-.45.1-.72.1-.92 0-1.44-.42-1.44-1.27 0-.83.6-1.4 1.5-1.4 1.1 0 1.98.87 1.98 2.16 0 1.48-1.07 3.05-2.78 3.86"/><path d="M546.28 380.13h2.3c.55-1.76.97-3.13 1.8-4.3.73-1.06 1.75-1.9 3.26-1.9 1.2 0 2.13.65 2.13 1.54 0 .54-.47 1.06-1.04 1.06-.45 0-.92-.37-.92-.96 0-.42.26-.55.26-.77 0-.2-.2-.32-.54-.32-1.4 0-2.3 1.73-3.03 5.65h2.64l-.14.8h-2.68l-1.78 7.92c-1.04 4.58-2.7 7-4.96 7-1.1 0-1.96-.64-1.96-1.5 0-.57.42-1.04.95-1.04.56 0 .94.4.94.92 0 .33-.22.45-.22.72 0 .22.2.4.5.4 1.04 0 1.83-1.34 2.4-4.02l2.18-10.4h-2.25"/><path d="M925.97 265c0-2.76 2.24-5 5-5h84.5c2.75 0 5 2.24 5 5v53c0 2.75-2.25 5-5 5h-84.5c-2.76 0-5-2.25-5-5z" stroke="#000" fill="#fff"/><use xlink:href="#a" transform="matrix(1,0,0,1,930.9704307692266,265) translate(5.149999999999999 30.1)"/><use xlink:href="#b" transform="matrix(1,0,0,1,930.9704307692266,265) translate(49 30.1)"/><path d="M943.18 369.43c-5.04 0-9.13 4.08-9.13 9.12v137.7c0 5.05 4.1 9.13 9.13 9.13m54.77 0c5.04 0 9.12-4.08 9.12-9.12v-137.7c0-5.05-4.08-9.13-9.12-9.13" stroke="#000" fill="none"/><path d="M941.84 500h61.37v25.38h-61.36z" fill="#fff" fill-opacity="0"/><path d="M951.28 503.6l.42 2c2.45-3.74 3.75-5 5.3-5 .83 0 1.43.52 1.43 1.3 0 .73-.5 1.25-1.2 1.25-.66 0-.97-.6-1.8-.6-.64 0-1.9 1.55-3.45 4.25 0 .24.07.73.28 1.58l1.12 4.7c.25.97.56 1.43 1.06 1.43.45 0 .84-.34 1.64-1.4.32-.42.46-.63.74-.98l.52.32c-2.03 3.15-2.94 4-4.27 4-1.12 0-1.65-.64-2.07-2.4l-1-4.16-3.1 4.17c-1.54 2.07-2.24 2.38-3.33 2.38-1.08 0-1.75-.56-1.75-1.47 0-.7.5-1.26 1.2-1.26.3 0 .66.14 1.1.4.36.2.7.3.92.3.4 0 1.06-.66 1.8-1.72l2.87-4.06-.98-4.34c-.5-2.1-.73-2.4-1.6-2.4-.3 0-.7.08-1.37.26l-.64.17-.1-.55.4-.14c2.13-.76 3.3-1 4.1-1 .87 0 1.3.63 1.78 3M964.87 506.46c0 .7-.57 1.27-1.22 1.27-.72 0-1.2-.52-1.2-1.32 0-.75.5-1.3 1.18-1.3.67 0 1.24.65 1.24 1.36m-1.05 12.02l.33.27c-1.37 2.08-2.16 2.83-3.4 2.83-.82 0-1.2-.45-1.2-1.37 0-.48.16-1.35.53-2.74l1.2-4.38c.12-.45.22-.9.22-1.1 0-.5-.25-.56-1.6-.6V511c.98-.08 1.47-.15 3.97-.62l.1.07-2.33 8.5c-.12.42-.24.74-.24 1.1 0 .24.15.36.34.36.42 0 1.02-.5 2.08-1.92M967.27 524.8l-.25-.47c1.36-.92 2.06-1.84 2.06-2.65 0-.18-.15-.33-.35-.33-.2 0-.45.1-.72.1-.9 0-1.43-.42-1.43-1.26 0-.85.6-1.42 1.5-1.42 1.1 0 1.97.86 1.97 2.15 0 1.5-1.06 3.05-2.77 3.87M980.5 510.35l-.5 3.47h-.4c-.24-2.05-.98-2.87-2.2-2.87-.87 0-1.46.5-1.46 1.4 0 .68.37 1.4 1.34 2.54 1.24 1.42 1.68 2.4 1.68 3.36 0 2.05-1.5 3.32-3.56 3.32-.43 0-.8-.03-1.37-.25-.47-.2-.82-.22-1.1-.22-.26 0-.53.13-.7.53h-.4l.5-3.94h.4c.34 2.34 1.18 3.36 2.47 3.36 1.16 0 1.88-.7 1.88-1.9 0-.8-.42-1.65-1.4-2.86-1.05-1.34-1.55-2.45-1.55-3.25 0-1.63 1.17-2.67 3-2.67.42 0 .77.07 1.4.25.46.14.68.17.88.17.38 0 .55-.1.75-.45h.35M983.13 524.8l-.25-.47c1.36-.92 2.05-1.84 2.05-2.65 0-.18-.14-.33-.34-.33s-.46.1-.73.1c-.92 0-1.44-.42-1.44-1.26 0-.85.6-1.42 1.5-1.42 1.1 0 1.97.86 1.97 2.15 0 1.5-1.07 3.05-2.77 3.87M999.08 513.13c0 4.26-1.56 8.52-5.6 8.52-4.23 0-5.6-4.6-5.6-8.67 0-4.4 1.7-8.42 5.7-8.42 3.25 0 5.5 3.5 5.5 8.57m-2.38.12c0-5.15-1.1-8.05-3.27-8.05-2.05 0-3.17 2.92-3.17 7.95s1.1 7.86 3.22 7.86c2.1 0 3.22-2.84 3.22-7.75"/><path d="M948.07 420.8v-26h38.45v26z" stroke="#000" stroke-opacity="0" fill="#fff" fill-opacity="0"/><use xlink:href="#c" transform="matrix(6.123233995736766e-17,-1,1,6.123233995736766e-17,953.0656754052768,415.80957885724627) translate(-1.2592592592592595 18.944444444444443)"/><path d="M940.9 466.05h61.37v25.4H940.9z" fill="#fff" fill-opacity="0"/><path d="M950.34 469.66l.42 2c2.45-3.75 3.75-5 5.3-5 .83 0 1.43.52 1.43 1.3 0 .72-.5 1.25-1.2 1.25-.67 0-.98-.6-1.83-.6-.63 0-1.9 1.56-3.43 4.25 0 .25.07.74.28 1.58l1.12 4.7c.25.98.56 1.43 1.05 1.43.45 0 .83-.35 1.64-1.4.32-.42.46-.63.74-.98l.52.3c-2.03 3.17-2.94 4-4.27 4-1.12 0-1.65-.62-2.07-2.37l-1.02-4.16-3.08 4.17c-1.54 2.07-2.24 2.4-3.33 2.4-1.08 0-1.75-.57-1.75-1.48 0-.7.5-1.26 1.2-1.26.3 0 .66.14 1.1.38.36.2.7.32.92.32.4 0 1.05-.67 1.8-1.72l2.86-4.06-.98-4.35c-.5-2.1-.73-2.38-1.6-2.38-.3 0-.7.07-1.38.24l-.63.17-.1-.56.38-.13c2.14-.77 3.3-1.02 4.1-1.02.88 0 1.3.63 1.8 3M963.92 472.52c0 .7-.57 1.26-1.2 1.26-.73 0-1.2-.52-1.2-1.3s.5-1.32 1.17-1.32c.65 0 1.22.64 1.22 1.36m-1.04 12l.33.3c-1.36 2.07-2.15 2.8-3.4 2.8-.8 0-1.2-.43-1.2-1.35 0-.5.17-1.36.54-2.75l1.2-4.4c.12-.43.2-.88.2-1.08 0-.5-.23-.57-1.57-.6v-.4c.96-.06 1.46-.14 3.96-.6l.1.07-2.33 8.5c-.12.43-.24.75-.24 1.1 0 .24.14.37.34.37.42 0 1.02-.52 2.08-1.94M966.33 490.85l-.25-.47c1.36-.9 2.06-1.83 2.06-2.65 0-.17-.15-.32-.35-.32-.2 0-.46.1-.73.1-.92 0-1.44-.4-1.44-1.26 0-.84.6-1.4 1.5-1.4 1.1 0 1.97.86 1.97 2.15 0 1.47-1.06 3.04-2.77 3.85M979.56 476.4l-.5 3.48h-.4c-.24-2.06-1-2.88-2.2-2.88-.87 0-1.46.5-1.46 1.42 0 .66.37 1.38 1.34 2.52 1.24 1.44 1.68 2.4 1.68 3.37 0 2.07-1.5 3.33-3.57 3.33-.42 0-.8-.02-1.36-.25-.48-.2-.83-.22-1.1-.22-.27 0-.54.13-.72.52h-.4l.5-3.94h.4c.34 2.36 1.2 3.37 2.48 3.37 1.16 0 1.88-.68 1.88-1.9 0-.8-.42-1.63-1.4-2.85-1.05-1.33-1.55-2.45-1.55-3.24 0-1.63 1.15-2.67 3-2.67.4 0 .76.08 1.38.25.47.15.7.17.9.17.36 0 .53-.1.73-.44h.36M982.18 490.85l-.24-.47c1.36-.9 2.05-1.83 2.05-2.65 0-.17-.16-.32-.35-.32-.2 0-.45.1-.72.1-.92 0-1.44-.4-1.44-1.26 0-.84.58-1.4 1.48-1.4 1.1 0 1.98.86 1.98 2.15 0 1.47-1.07 3.04-2.78 3.85M996.1 487.36h-6.83V487c1.83-.1 2.35-.63 2.35-2V473.9c0-.84-.22-1.2-.74-1.2-.25 0-.67.1-1.1.28l-.68.25v-.33l4.43-2.26.22.1v14.78c0 1.06.5 1.5 2.36 1.5v.38"/><path d="M941.84 369.43h59.5v27h-59.5z" fill="#fff" fill-opacity="0"/><path d="M951.28 373.04l.42 2c2.45-3.76 3.75-5.02 5.3-5.02.83 0 1.43.53 1.43 1.3 0 .73-.5 1.26-1.2 1.26-.66 0-.97-.6-1.8-.6-.64 0-1.9 1.55-3.45 4.24 0 .25.07.74.28 1.58l1.12 4.7c.25.98.56 1.43 1.06 1.43.45 0 .84-.35 1.64-1.4.32-.42.46-.63.74-.98l.52.32c-2.03 3.15-2.94 4-4.27 4-1.12 0-1.65-.64-2.07-2.4l-1-4.16-3.1 4.18c-1.54 2.06-2.24 2.38-3.33 2.38-1.08 0-1.75-.56-1.75-1.47 0-.7.5-1.27 1.2-1.27.3 0 .66.14 1.1.38.36.22.7.33.92.33.4 0 1.06-.67 1.8-1.72l2.87-4.05-.98-4.35c-.5-2.1-.73-2.38-1.6-2.38-.3 0-.7.07-1.37.24l-.64.18-.1-.56.4-.14c2.13-.77 3.3-1.02 4.1-1.02.87 0 1.3.63 1.78 3.02M964.87 375.9c0 .68-.57 1.25-1.22 1.25-.72 0-1.2-.52-1.2-1.3s.5-1.32 1.18-1.32c.67 0 1.24.64 1.24 1.36m-1.05 12l.33.28c-1.37 2.08-2.16 2.82-3.4 2.82-.82 0-1.2-.44-1.2-1.36 0-.5.16-1.36.53-2.75l1.2-4.4c.12-.44.22-.9.22-1.1 0-.48-.25-.56-1.6-.58v-.4c.98-.07 1.47-.15 3.97-.62l.1.08-2.33 8.5c-.12.42-.24.74-.24 1.1 0 .23.15.36.34.36.42 0 1.02-.52 2.08-1.93M967.27 394.22l-.25-.47c1.36-.9 2.06-1.83 2.06-2.65 0-.17-.15-.32-.35-.32-.2 0-.45.1-.72.1-.9 0-1.43-.42-1.43-1.27 0-.83.6-1.4 1.5-1.4 1.1 0 1.97.87 1.97 2.16 0 1.48-1.06 3.05-2.77 3.86M980.5 379.78l-.5 3.47h-.4c-.24-2.06-.98-2.88-2.2-2.88-.87 0-1.46.5-1.46 1.42 0 .65.37 1.37 1.34 2.5 1.24 1.45 1.68 2.42 1.68 3.38 0 2.06-1.5 3.32-3.56 3.32-.43 0-.8-.02-1.37-.25-.47-.2-.82-.22-1.1-.22-.26 0-.53.13-.7.52h-.4l.5-3.94h.4c.34 2.37 1.18 3.38 2.47 3.38 1.16 0 1.88-.7 1.88-1.9 0-.8-.42-1.64-1.4-2.85-1.05-1.34-1.55-2.46-1.55-3.25 0-1.64 1.17-2.68 3-2.68.42 0 .77.08 1.4.25.46.15.68.17.88.17.38 0 .55-.1.75-.44h.35M983.13 394.22l-.25-.47c1.36-.9 2.05-1.83 2.05-2.65 0-.17-.14-.32-.34-.32s-.46.1-.73.1c-.92 0-1.44-.42-1.44-1.27 0-.83.6-1.4 1.5-1.4 1.1 0 1.97.87 1.97 2.16 0 1.48-1.07 3.05-2.77 3.86"/><path d="M988.3 380.13h2.3c.55-1.76.97-3.13 1.8-4.3.73-1.06 1.75-1.9 3.26-1.9 1.22 0 2.13.65 2.13 1.54 0 .54-.48 1.06-1.05 1.06-.44 0-.9-.37-.9-.96 0-.42.23-.55.23-.77 0-.2-.2-.32-.54-.32-1.4 0-2.3 1.73-3.02 5.65h2.65l-.15.8h-2.68l-1.78 7.92c-1.04 4.58-2.7 7-4.96 7-1.1 0-1.95-.64-1.95-1.5 0-.57.42-1.04.94-1.04.56 0 .93.4.93.92 0 .33-.22.45-.22.72 0 .22.2.4.5.4 1.04 0 1.83-1.34 2.4-4.02l2.18-10.4h-2.25"/><path d="M439.82 291.5h23.3" stroke="#000" fill="none"/><path d="M439.83 292h-.5v-1h.5zM477.88 291.5l-14.26 4.63v-9.27z"/><path d="M479.5 291.5l-16.38 5.32v-10.65zm-15.38 3.94l12.14-3.94-12.14-3.95z"/><path d="M575.5 291.5H601.75" stroke="#000" fill="none"/><path d="M575.5 292h-.5v-1h.5zM616.5 291.5l-14.25 4.63v-9.27z"/><path d="M618.13 291.5l-16.38 5.32v-10.65zm-15.38 3.94l12.14-3.94-12.15-3.95z"/><path d="M618.13 273.16h36.38v36.67h-36.37z" stroke="#000" stroke-opacity="0" fill="#fff" fill-opacity="0"/><use xlink:href="#c" transform="matrix(1,0,0,1,623.1299715519889,278.16272965879267) translate(4.2407407407407405 17.944444444444443)"/><path d="M973.2 259v-37.92" stroke="#000" fill="none"/><path d="M973.7 259.5h-1v-.5h1zM977.85 220.58h-9.27l4.63-14.27z"/><path d="M978.54 221.08H967.9l5.3-16.4zm-9.27-1h7.9l-3.96-12.15z"/><path d="M993.53 151c7.48 0 13.54 11.9 13.54 26.6 0 14.68-6.06 26.6-13.54 26.6H952.9c-7.48 0-13.54-11.92-13.54-26.6 0-14.7 6.06-26.6 13.54-26.6z" stroke="#000" fill="#fff"/><use xlink:href="#d" transform="matrix(1,0,0,1,944.3555498018716,155.99304426936152) translate(29 25.6)"/><path d="M873.15 291.5h35.94M873.17 291.5h-.52" stroke="#000" fill="none"/><path d="M923.85 291.5l-14.26 4.63v-9.27z"/><path d="M925.47 291.5l-16.38 5.32v-10.65zm-15.38 3.94l12.13-3.94-12.14-3.95z"/><path d="M352.12 120h51.26v24h-51.26z" fill="#fff" fill-opacity="0"/><path d="M360.52 123.2l.37 1.78c2.17-3.33 3.32-4.45 4.7-4.45.74 0 1.27.47 1.27 1.15 0 .66-.44 1.12-1.06 1.12-.58 0-.86-.53-1.6-.53-.57 0-1.7 1.37-3.06 3.77 0 .22.06.66.25 1.4l.98 4.18c.22.87.5 1.27.94 1.27.4 0 .75-.32 1.46-1.25.28-.38.4-.56.66-.87l.46.28c-1.8 2.8-2.6 3.55-3.8 3.55-1 0-1.46-.56-1.83-2.1l-.9-3.72-2.75 3.7c-1.37 1.84-2 2.13-2.96 2.13s-1.55-.5-1.55-1.3c0-.63.44-1.12 1.07-1.12.28 0 .6.12 1 .34.3.2.62.28.8.28.35 0 .94-.6 1.6-1.53l2.54-3.6-.86-3.87c-.43-1.87-.65-2.12-1.43-2.12-.24 0-.6.06-1.2.22l-.56.16-.1-.5.34-.13c1.9-.68 2.93-.9 3.65-.9.78 0 1.15.56 1.6 2.68M372.6 125.74c0 .62-.52 1.13-1.1 1.13-.63 0-1.05-.47-1.05-1.17 0-.68.44-1.17 1.04-1.17.58 0 1.1.58 1.1 1.2m-.94 10.7l.3.24c-1.22 1.85-1.93 2.5-3.03 2.5-.72 0-1.08-.4-1.08-1.2 0-.45.16-1.22.5-2.45l1.04-3.9c.1-.4.2-.8.2-.97 0-.44-.23-.5-1.42-.52v-.36c.86-.06 1.3-.13 3.53-.55l.1.07-2.07 7.54c-.1.38-.22.66-.22.97 0 .23.14.34.3.34.4 0 .92-.46 1.86-1.72M374.72 142.04l-.22-.42c1.2-.8 1.83-1.63 1.83-2.36 0-.15-.13-.28-.3-.28-.18 0-.4.1-.65.1-.8 0-1.27-.4-1.27-1.14 0-.75.54-1.25 1.33-1.25 1 0 1.76.76 1.76 1.9 0 1.32-.96 2.7-2.48 3.44"/><path d="M384.57 125.77c0 .6-.53 1.1-1.1 1.1-.67 0-1.2-.47-1.2-1.15 0-.66.56-1.14 1.17-1.14.6 0 1.13.57 1.13 1.2m-.73 3.5l-2.3 9.04c-.9 3.56-2.2 5.17-4.1 5.17-1.02 0-1.75-.56-1.75-1.35 0-.53.4-.97.9-.97.6 0 .85.35.85.8 0 .5-.26.43-.26.76 0 .16.12.27.4.27.87 0 1.37-.96 2.12-4l1.6-6.43c.25-1.08.34-1.54.34-1.76 0-.48-.26-.67-1.06-.67h-.57v-.36c.7-.04 1.87-.22 3.72-.55M386.4 142.04l-.23-.42c1.2-.8 1.83-1.63 1.83-2.36 0-.15-.13-.28-.3-.28-.18 0-.4.1-.65.1-.8 0-1.27-.4-1.27-1.14 0-.75.53-1.25 1.32-1.25 1 0 1.76.76 1.76 1.9 0 1.32-.95 2.7-2.47 3.44M400.24 129.5v.36c-1.03.07-1.7.5-4.95 3.4l.8 1.93c.86 2.02 1.37 2.83 1.8 2.83.32 0 .58-.24.98-.92l.33-.57.34.25c-1 1.85-1.56 2.4-2.45 2.4-.64 0-1.08-.42-1.8-1.8-.4-.78-.96-2.15-1.3-3.1l-.9.7-1.05 3.95h-1.65l3.1-11.62c.3-1.05.36-1.56.4-1.93-.04-.4-.37-.53-1.12-.53h-.4v-.35c1.3-.16 2.16-.32 3.46-.6l.13.13-2.64 10.04.95-.73c2.07-1.58 3.15-2.64 3.15-3.08 0-.24-.27-.4-.82-.4h-.3v-.35h3.94"/><path d="M382.37 144.26v26.08h23.9" stroke="#000" stroke-width=".5" fill="none"/><path d="M382.62 144.27h-.5V144h.5zM420.8 170.34l-14.27 4.64v-9.27z"/><path d="M421.6 170.34l-15.32 4.98v-9.96zm-14.82 4.3l13.2-4.3-13.2-4.3z"/><path d="M393.72 144.26v7.43h12.56" stroke="#000" stroke-width=".5" fill="none"/><path d="M393.97 144.27h-.5V144h.5zM420.8 151.7l-14.27 4.62v-9.27z"/><path d="M421.6 151.7l-15.32 4.97v-9.96zm-14.82 4.28l13.2-4.3-13.2-4.28z"/><path d="M421.6 156.2h175.5v28.3H421.6z" stroke="#000" stroke-opacity="0" stroke-width="2" fill="#fff" fill-opacity="0"/><use xlink:href="#e" transform="matrix(1,0,0,1,426.60127154137217,161.19897276490735) translate(0 12.166666666666668)"/><use xlink:href="#f" transform="matrix(1,0,0,1,426.60127154137217,161.19897276490735) translate(63.7037037037037 12.166666666666668)"/><use xlink:href="#g" transform="matrix(1,0,0,1,426.60127154137217,161.19897276490735) translate(112.51851851851852 12.166666666666668)"/><use xlink:href="#h" transform="matrix(1,0,0,1,426.60127154137217,161.19897276490735) translate(128.03703703703704 12.166666666666668)"/><use xlink:href="#i" transform="matrix(1,0,0,1,426.60127154137217,161.19897276490735) translate(142.85185185185185 12.166666666666668)"/><path d="M421.6 139.68h175.5v24H421.6z" stroke="#000" stroke-opacity="0" stroke-width="2" fill="#fff" fill-opacity="0"/><use xlink:href="#j" transform="matrix(1,0,0,1,426.60127154137217,144.68123542278119) translate(0 10.666666666666668)"/><use xlink:href="#f" transform="matrix(1,0,0,1,426.60127154137217,144.68123542278119) translate(49.55555555555555 10.666666666666668)"/><use xlink:href="#g" transform="matrix(1,0,0,1,426.60127154137217,144.68123542278119) translate(98.37037037037037 10.666666666666668)"/><use xlink:href="#h" transform="matrix(1,0,0,1,426.60127154137217,144.68123542278119) translate(113.88888888888889 10.666666666666668)"/><use xlink:href="#k" transform="matrix(1,0,0,1,426.60127154137217,144.68123542278119) translate(128.7037037037037 10.666666666666668)"/><path d="M352.12 196.06h192v52.37h-192z" stroke="#000" stroke-opacity="0" stroke-width="2" fill="#fff" fill-opacity="0"/><use xlink:href="#l" transform="matrix(1,0,0,1,357.1235851314215,201.06047621427822) translate(0 10.666666666666668)"/><use xlink:href="#m" transform="matrix(1,0,0,1,357.1235851314215,201.06047621427822) translate(18.481481481481485 10.666666666666668)"/><use xlink:href="#n" transform="matrix(1,0,0,1,357.1235851314215,201.06047621427822) translate(47.33333333333334 10.666666666666668)"/><use xlink:href="#o" transform="matrix(1,0,0,1,357.1235851314215,201.06047621427822) translate(96.14814814814815 10.666666666666668)"/><use xlink:href="#p" transform="matrix(1,0,0,1,357.1235851314215,201.06047621427822) translate(110.96296296296296 10.666666666666668)"/><use xlink:href="#q" transform="matrix(1,0,0,1,357.1235851314215,201.06047621427822) translate(0 26.666666666666668)"/><use xlink:href="#r" transform="matrix(1,0,0,1,357.1235851314215,201.06047621427822) translate(14.074074074074076 26.666666666666668)"/><use xlink:href="#s" transform="matrix(1,0,0,1,357.1235851314215,201.06047621427822) translate(75.55555555555557 26.666666666666668)"/><use xlink:href="#t" transform="matrix(1,0,0,1,357.1235851314215,201.06047621427822) translate(0 42.66666666666667)"/><use xlink:href="#m" transform="matrix(1,0,0,1,357.1235851314215,201.06047621427822) translate(11.111111111111112 42.66666666666667)"/><use xlink:href="#n" transform="matrix(1,0,0,1,357.1235851314215,201.06047621427822) translate(39.96296296296297 42.66666666666667)"/><use xlink:href="#o" transform="matrix(1,0,0,1,357.1235851314215,201.06047621427822) translate(88.77777777777779 42.66666666666667)"/><use xlink:href="#u" transform="matrix(1,0,0,1,357.1235851314215,201.06047621427822) translate(103.59259259259261 42.66666666666667)"/><use xlink:href="#v" transform="matrix(1,0,0,1,357.1235851314215,201.06047621427822) translate(0 58.66666666666667)"/><path d="M620.86 425.12h36.37v36.67h-36.37z" stroke="#000" stroke-opacity="0" fill="#fff" fill-opacity="0"/><use xlink:href="#c" transform="matrix(1,0,0,1,625.8568172277265,430.12109380887233) translate(4.2407407407407405 17.944444444444443)"/><path d="M953.6 159.25h39.2v34.9h-39.2z" fill="#fff" fill-opacity="0"/><path d="M967.26 173.2l1.08 5.63c4.35-7.23 6.25-10.92 6.25-13.17 0-.72-.37-1.02-1.35-1.64-1.02-.67-1.33-1.18-1.33-2 0-1.13.87-1.9 2.05-1.9 1.54 0 2.67 1.3 2.67 2.82 0 2.93-2.46 8.56-6.72 15.63-5.33 8.82-10.8 14.7-13.73 14.7-1.55 0-2.62-.86-2.62-2.2 0-1.12.87-2.04 2-2.04 1.8 0 1.8 1.43 3.12 1.43.67 0 1.28-.4 2.46-1.7.92-.96 3.23-4 3.64-4.65.3-.6.5-1.22.5-1.8 0-2.03-2.8-13.5-4.2-17-.96-2.5-1.9-3.28-3.94-3.28-.56 0-1.02.05-1.6.2v-.86l1.65-.3c1.04-.22 2.73-.52 5.5-.93h.2c.77 0 3.5 8.5 4.36 13.06M987.13 168.74c0 1-.83 1.85-1.78 1.85-1.05 0-1.74-.78-1.74-1.93 0-1.13.74-1.93 1.72-1.93s1.8.95 1.8 2m-1.5 17.57l.46.4c-2 3.05-3.15 4.14-4.97 4.14-1.18 0-1.76-.65-1.76-2 0-.72.25-1.98.8-4l1.73-6.43c.2-.64.33-1.3.33-1.58 0-.73-.36-.84-2.32-.87v-.58c1.4-.1 2.14-.22 5.8-.9l.14.1-3.4 12.43c-.18.62-.36 1.1-.36 1.6 0 .36.2.54.5.54.62 0 1.5-.76 3.05-2.83"/><path d="M370.03 144.26v45.8h36.25" stroke="#000" stroke-width=".5" fill="none"/><path d="M370.28 144.27h-.5V144h.5zM420.8 190.05l-14.27 4.63v-9.27z"/><path d="M421.6 190.05l-15.32 4.98v-9.96zm-14.82 4.3l13.2-4.3-13.2-4.3z"/><path d="M421.6 175.9h175.5v28.3H421.6z" stroke="#000" stroke-opacity="0" stroke-width="2" fill="#fff" fill-opacity="0"/><use xlink:href="#w" transform="matrix(1,0,0,1,426.60127154137217,180.9055118110236) translate(0 12.166666666666668)"/><use xlink:href="#f" transform="matrix(1,0,0,1,426.60127154137217,180.9055118110236) translate(54.07407407407407 12.166666666666668)"/><use xlink:href="#g" transform="matrix(1,0,0,1,426.60127154137217,180.9055118110236) translate(102.88888888888889 12.166666666666668)"/><use xlink:href="#h" transform="matrix(1,0,0,1,426.60127154137217,180.9055118110236) translate(118.4074074074074 12.166666666666668)"/><use xlink:href="#x" transform="matrix(1,0,0,1,426.60127154137217,180.9055118110236) translate(133.22222222222223 12.166666666666668)"/><path d="M391.57 359.5v-19.62M391.57 359.5v.5" stroke="#000" fill="none"/><path d="M396.2 339.38h-9.26l4.63-14.27z"/><path d="M396.9 339.88h-10.65l5.32-16.4zm-9.27-1h7.9l-3.96-12.15z"/><path d="M661.2 600h39.23v32.3H661.2z" fill="#fff" fill-opacity="0"/><path d="M674.97 605.26l.6 2.9c3.6-5.45 5.48-7.3 7.72-7.3 1.22 0 2.1.78 2.1 1.9 0 1.07-.73 1.84-1.75 1.84-.97 0-1.43-.87-2.65-.87-.92 0-2.76 2.25-5 6.18 0 .37.1 1.08.4 2.3l1.63 6.85c.36 1.43.82 2.1 1.54 2.1.66 0 1.22-.5 2.4-2.04.46-.6.66-.9 1.07-1.43l.77.46c-2.96 4.6-4.3 5.83-6.23 5.83-1.63 0-2.4-.92-3-3.48l-1.5-6.07-4.5 6.08c-2.23 3.02-3.26 3.48-4.84 3.48s-2.55-.82-2.55-2.15c0-1 .7-1.83 1.73-1.83.47 0 .98.2 1.65.57.5.3 1.02.46 1.33.46.56 0 1.53-.98 2.6-2.5l4.2-5.93-1.44-6.34c-.72-3.06-1.07-3.47-2.35-3.47-.42 0-1.03.1-2 .36l-.92.25-.16-.8.57-.22c3.1-1.12 4.8-1.48 5.96-1.48 1.28 0 1.9.92 2.6 4.4M694.77 609.45c0 1.02-.83 1.85-1.77 1.85-1.04 0-1.73-.76-1.73-1.92 0-1.12.72-1.9 1.7-1.9.97 0 1.8.93 1.8 1.97m-1.5 17.52l.46.4c-2 3.03-3.15 4.12-4.95 4.12-1.2 0-1.77-.66-1.77-2 0-.72.26-2 .8-4l1.74-6.4c.18-.65.32-1.3.32-1.6 0-.7-.36-.82-2.3-.86v-.58c1.4-.1 2.12-.2 5.77-.9l.14.1-3.4 12.4c-.17.6-.35 1.08-.35 1.6 0 .35.2.53.5.53.62 0 1.48-.77 3.04-2.83"/><path d="M527.24 359.5v-19.62M527.24 359.5v.5" stroke="#000" fill="none"/><path d="M531.88 339.38h-9.27l4.64-14.27z"/><path d="M532.57 339.88h-10.65l5.32-16.4zm-9.27-1h7.9l-3.96-12.15z"/><path d="M973.2 359.5v-19.62M973.2 359.5v.5" stroke="#000" fill="none"/><path d="M977.85 339.38h-9.27l4.63-14.27z"/><path d="M978.54 339.88H967.9l5.3-16.4zm-9.27-1h7.9l-3.96-12.15z"/><path d="M698.15 265c0-2.76 2.24-5 5-5h84.5c2.75 0 5 2.24 5 5v53c0 2.75-2.25 5-5 5h-84.5c-2.76 0-5-2.25-5-5z" stroke="#000" fill="#fff"/><use xlink:href="#a" transform="matrix(1,0,0,1,703.1473077629585,265) translate(5.149999999999999 30.1)"/><use xlink:href="#b" transform="matrix(1,0,0,1,703.1473077629585,265) translate(49 30.1)"/><path d="M715.78 369.43c-5 0-9.04 4.04-9.04 9.04v137.87c0 5 4.05 9.04 9.04 9.04m54.27 0c5 0 9.04-4.04 9.04-9.04V378.47c0-5-4.06-9.04-9.05-9.04" stroke="#000" fill="none"/><path d="M713.58 499.18h58.65v27.02h-58.65z" fill="#fff" fill-opacity="0"/><path d="M723.02 502.8l.42 2c2.46-3.76 3.75-5.02 5.3-5.02.84 0 1.43.52 1.43 1.3 0 .73-.5 1.26-1.2 1.26-.65 0-.97-.6-1.8-.6-.64 0-1.9 1.54-3.45 4.24 0 .25.08.74.3 1.58l1.1 4.7c.25.97.57 1.43 1.06 1.43.45 0 .84-.36 1.64-1.4.32-.43.46-.64.74-1l.53.32c-2.05 3.16-2.96 4-4.3 4-1.1 0-1.64-.63-2.06-2.4l-1-4.16-3.1 4.17c-1.54 2.07-2.24 2.4-3.32 2.4-1.1 0-1.76-.57-1.76-1.5 0-.7.5-1.25 1.2-1.25.3 0 .66.14 1.12.4.35.2.7.3.9.3.4 0 1.06-.66 1.8-1.7l2.87-4.08-.98-4.34c-.5-2.1-.74-2.38-1.62-2.38-.28 0-.7.07-1.36.24l-.64.18-.1-.56.38-.14c2.14-.78 3.3-1.02 4.1-1.02.87 0 1.3.63 1.78 3M736.6 505.65c0 .7-.56 1.26-1.2 1.26-.72 0-1.2-.5-1.2-1.3 0-.77.5-1.32 1.17-1.32.67 0 1.24.65 1.24 1.37m-1.03 12l.32.28c-1.37 2.1-2.17 2.83-3.4 2.83-.82 0-1.22-.45-1.22-1.36 0-.5.17-1.37.55-2.75l1.2-4.4c.1-.43.2-.88.2-1.08 0-.5-.24-.57-1.58-.6v-.4c.97-.06 1.46-.14 3.97-.6l.1.06-2.33 8.5c-.14.42-.26.75-.26 1.1 0 .24.15.36.35.36.4 0 1-.53 2.07-1.94M739 523.98l-.24-.47c1.37-.9 2.06-1.82 2.06-2.64 0-.18-.15-.32-.35-.32-.2 0-.44.1-.72.1-.9 0-1.43-.43-1.43-1.27 0-.84.6-1.4 1.48-1.4 1.12 0 2 .86 2 2.15 0 1.48-1.08 3.04-2.8 3.86"/><path d="M750.1 505.67c0 .67-.6 1.24-1.25 1.24-.75 0-1.34-.5-1.34-1.28 0-.74.63-1.3 1.32-1.3.67 0 1.27.66 1.27 1.35m-.83 3.96l-2.58 10.16c-1.02 4-2.5 5.82-4.64 5.82-1.14 0-1.96-.62-1.96-1.52 0-.6.45-1.1 1.02-1.1.67 0 .96.4.96.93 0 .55-.3.47-.3.84 0 .18.15.3.45.3 1 0 1.56-1.1 2.4-4.5l1.8-7.24c.3-1.22.4-1.74.4-2 0-.53-.3-.75-1.2-.75h-.65v-.4c.8-.05 2.1-.25 4.2-.62M752.14 523.98l-.25-.47c1.36-.9 2.05-1.82 2.05-2.64 0-.18-.15-.32-.35-.32-.2 0-.44.1-.7.1-.93 0-1.45-.43-1.45-1.27 0-.84.6-1.4 1.5-1.4 1.1 0 1.97.86 1.97 2.15 0 1.48-1.07 3.04-2.78 3.86M768.1 512.3c0 4.27-1.56 8.53-5.6 8.53-4.24 0-5.6-4.6-5.6-8.67 0-4.38 1.7-8.42 5.7-8.42 3.24 0 5.5 3.5 5.5 8.57m-2.38.13c0-5.15-1.1-8.05-3.27-8.05-2.06 0-3.17 2.93-3.17 7.96 0 5.03 1.1 7.85 3.22 7.85 2.1 0 3.22-2.86 3.22-7.77"/><path d="M714.52 468.88v-26h50.38v26z" stroke="#000" stroke-opacity="0" fill="#fff" fill-opacity="0"/><use xlink:href="#c" transform="matrix(6.123233995736766e-17,-1,1,6.123233995736766e-17,719.5227522102758,463.878131186543) translate(-1.2592592592592595 24.944444444444443)"/><path d="M714.52 466.05h58.65v27.02h-58.65z" fill="#fff" fill-opacity="0"/><path d="M723.97 469.66l.42 2c2.44-3.75 3.74-5 5.28-5 .84 0 1.43.52 1.43 1.3 0 .72-.48 1.25-1.18 1.25-.66 0-.98-.6-1.82-.6-.63 0-1.9 1.56-3.43 4.25 0 .25.07.74.28 1.58l1.12 4.7c.24.98.56 1.43 1.05 1.43.45 0 .84-.35 1.65-1.4.3-.42.45-.63.73-.98l.53.3c-2.03 3.17-2.95 4-4.28 4-1.12 0-1.64-.62-2.06-2.37l-1.03-4.16-3.08 4.17c-1.56 2.07-2.26 2.4-3.34 2.4-1.1 0-1.75-.57-1.75-1.48 0-.7.5-1.26 1.2-1.26.3 0 .66.14 1.12.38.35.2.7.32.9.32.4 0 1.06-.67 1.8-1.72l2.87-4.06-1-4.35c-.48-2.1-.73-2.38-1.6-2.38-.28 0-.7.07-1.37.24l-.63.17-.1-.56.38-.13c2.14-.77 3.3-1.02 4.1-1.02.87 0 1.3.63 1.8 3M737.55 472.52c0 .7-.57 1.26-1.2 1.26-.73 0-1.2-.52-1.2-1.3s.5-1.32 1.16-1.32c.68 0 1.25.64 1.25 1.36m-1.04 12l.33.3c-1.36 2.07-2.15 2.8-3.4 2.8-.8 0-1.2-.43-1.2-1.35 0-.5.17-1.36.54-2.75l1.2-4.4c.1-.43.2-.88.2-1.08 0-.5-.24-.57-1.58-.6v-.4c.96-.06 1.46-.14 3.96-.6l.1.07-2.33 8.5c-.13.43-.25.75-.25 1.1 0 .24.15.37.35.37.42 0 1-.52 2.08-1.94M739.95 490.85l-.25-.47c1.37-.9 2.06-1.83 2.06-2.65 0-.17-.15-.32-.35-.32-.18 0-.43.1-.7.1-.92 0-1.44-.4-1.44-1.26 0-.84.6-1.4 1.5-1.4 1.1 0 1.97.86 1.97 2.15 0 1.47-1.07 3.04-2.78 3.85"/><path d="M751.03 472.54c0 .67-.6 1.24-1.24 1.24-.75 0-1.35-.52-1.35-1.3 0-.73.62-1.27 1.3-1.27s1.28.65 1.28 1.34m-.82 3.97l-2.57 10.17c-1 4-2.47 5.82-4.63 5.82-1.14 0-1.96-.63-1.96-1.52 0-.6.45-1.1 1.02-1.1.67 0 .96.4.96.92 0 .55-.3.47-.3.85 0 .17.16.3.45.3 1 0 1.56-1.1 2.4-4.52l1.8-7.23c.3-1.2.4-1.74.4-1.98 0-.55-.3-.77-1.2-.77h-.65v-.4c.8-.05 2.1-.25 4.2-.62M753.08 490.85l-.24-.47c1.36-.9 2.05-1.83 2.05-2.65 0-.17-.16-.32-.35-.32-.2 0-.45.1-.72.1-.92 0-1.44-.4-1.44-1.26 0-.84.58-1.4 1.48-1.4 1.1 0 1.98.86 1.98 2.15 0 1.47-1.07 3.04-2.78 3.85M767 487.36h-6.83V487c1.83-.1 2.35-.63 2.35-2V473.9c0-.84-.22-1.2-.74-1.2-.25 0-.67.1-1.1.28l-.68.25v-.33l4.43-2.26.22.1v14.78c0 1.06.5 1.5 2.36 1.5v.38"/><path d="M714.52 369.43h56.77v27H714.5z" fill="#fff" fill-opacity="0"/><path d="M723.97 373.04l.42 2c2.44-3.76 3.74-5.02 5.28-5.02.84 0 1.43.53 1.43 1.3 0 .73-.48 1.26-1.18 1.26-.66 0-.98-.6-1.82-.6-.63 0-1.9 1.55-3.43 4.24 0 .25.07.74.28 1.58l1.12 4.7c.24.98.56 1.43 1.05 1.43.45 0 .84-.35 1.65-1.4.3-.42.45-.63.73-.98l.53.32c-2.03 3.15-2.95 4-4.28 4-1.12 0-1.64-.64-2.06-2.4l-1.03-4.16-3.08 4.18c-1.56 2.06-2.26 2.38-3.34 2.38-1.1 0-1.75-.56-1.75-1.47 0-.7.5-1.27 1.2-1.27.3 0 .66.14 1.12.38.35.22.7.33.9.33.4 0 1.06-.67 1.8-1.72l2.87-4.05-1-4.35c-.48-2.1-.73-2.38-1.6-2.38-.28 0-.7.07-1.37.24l-.63.18-.1-.56.38-.14c2.14-.77 3.3-1.02 4.1-1.02.87 0 1.3.63 1.8 3.02M737.55 375.9c0 .68-.57 1.25-1.2 1.25-.73 0-1.2-.52-1.2-1.3s.5-1.32 1.16-1.32c.68 0 1.25.64 1.25 1.36m-1.04 12l.33.28c-1.36 2.08-2.15 2.82-3.4 2.82-.8 0-1.2-.44-1.2-1.36 0-.5.17-1.36.54-2.75l1.2-4.4c.1-.44.2-.9.2-1.1 0-.48-.24-.56-1.58-.58v-.4c.96-.07 1.46-.15 3.96-.62l.1.08-2.33 8.5c-.13.42-.25.74-.25 1.1 0 .23.15.36.35.36.42 0 1-.52 2.08-1.93M739.95 394.22l-.25-.47c1.37-.9 2.06-1.83 2.06-2.65 0-.17-.15-.32-.35-.32-.18 0-.43.1-.7.1-.92 0-1.44-.42-1.44-1.27 0-.83.6-1.4 1.5-1.4 1.1 0 1.97.87 1.97 2.16 0 1.48-1.07 3.05-2.78 3.86"/><path d="M751.03 375.9c0 .68-.6 1.25-1.24 1.25-.75 0-1.35-.52-1.35-1.3 0-.73.62-1.27 1.3-1.27s1.28.64 1.28 1.33m-.82 3.98l-2.57 10.16c-1 4-2.47 5.82-4.63 5.82-1.14 0-1.96-.62-1.96-1.5 0-.6.45-1.1 1.02-1.1.67 0 .96.4.96.9 0 .56-.3.48-.3.86 0 .17.16.3.45.3 1 0 1.56-1.1 2.4-4.52l1.8-7.23c.3-1.2.4-1.73.4-1.98 0-.56-.3-.78-1.2-.78h-.65v-.4c.8-.05 2.1-.24 4.2-.62M753.08 394.22l-.24-.47c1.36-.9 2.05-1.83 2.05-2.65 0-.17-.16-.32-.35-.32-.2 0-.45.1-.72.1-.92 0-1.44-.42-1.44-1.27 0-.83.58-1.4 1.48-1.4 1.1 0 1.98.87 1.98 2.16 0 1.48-1.07 3.05-2.78 3.86"/><path d="M758.26 380.13h2.3c.55-1.76.97-3.13 1.8-4.3.73-1.06 1.75-1.9 3.26-1.9 1.2 0 2.13.65 2.13 1.54 0 .54-.47 1.06-1.04 1.06-.44 0-.9-.37-.9-.96 0-.42.24-.55.24-.77 0-.2-.2-.32-.54-.32-1.4 0-2.3 1.73-3.03 5.65h2.66l-.15.8h-2.68l-1.78 7.92c-1.04 4.58-2.7 7-4.96 7-1.1 0-1.96-.64-1.96-1.5 0-.57.43-1.04.95-1.04.57 0 .94.4.94.92 0 .33-.24.45-.24.72 0 .22.2.4.5.4 1.04 0 1.83-1.34 2.4-4.02l2.18-10.4h-2.25"/><path d="M793.64 291.5h26.27" stroke="#000" fill="none"/><path d="M793.65 292h-.5v-1h.5zM834.66 291.5l-14.27 4.63v-9.27z"/><path d="M836.28 291.5l-16.4 5.32v-10.65zm-15.4 3.94l12.16-3.94-12.15-3.95z"/><path d="M745.4 359.5v-19.62M745.4 359.5v.5" stroke="#000" fill="none"/><path d="M750.03 339.38h-9.27l4.63-14.27z"/><path d="M750.7 339.88h-10.63l5.32-16.4zm-9.26-1h7.9l-3.95-12.15z"/><path d="M357.96 417.33h63.16v25.4h-63.16z" fill="#fff" fill-opacity="0"/><path d="M367.4 420.94l.43 2c2.45-3.75 3.75-5 5.3-5 .83 0 1.42.5 1.42 1.3 0 .72-.5 1.25-1.2 1.25-.65 0-.97-.6-1.8-.6-.64 0-1.9 1.53-3.44 4.23 0 .25.08.74.3 1.58l1.1 4.7c.25.98.57 1.44 1.06 1.44.46 0 .84-.35 1.65-1.4.32-.42.46-.63.74-.98l.53.3c-2.03 3.17-2.95 4-4.28 4-1.13 0-1.65-.62-2.07-2.38l-1.02-4.17-3.07 4.18c-1.55 2.07-2.25 2.4-3.33 2.4-1.1 0-1.75-.57-1.75-1.5 0-.7.5-1.25 1.2-1.25.3 0 .65.14 1.1.4.36.2.7.3.92.3.4 0 1.05-.66 1.8-1.7l2.86-4.08-.98-4.34c-.5-2.1-.74-2.37-1.6-2.37-.3 0-.7.07-1.38.24l-.63.18-.1-.56.38-.15c2.14-.78 3.3-1.02 4.1-1.02.88 0 1.3.63 1.8 3M381 423.8c0 .7-.58 1.26-1.22 1.26-.72 0-1.2-.52-1.2-1.3s.5-1.33 1.17-1.33c.67 0 1.24.65 1.24 1.37m-1.05 12l.32.28c-1.36 2.1-2.15 2.83-3.4 2.83-.8 0-1.2-.44-1.2-1.35 0-.5.17-1.37.54-2.75l1.2-4.4c.12-.43.22-.88.22-1.08 0-.5-.25-.57-1.6-.6v-.4c.98-.06 1.48-.14 3.98-.6l.1.06-2.33 8.5c-.12.42-.25.75-.25 1.1 0 .24.15.36.35.36.42 0 1-.52 2.08-1.93M383.4 442.13l-.25-.47c1.36-.92 2.05-1.83 2.05-2.65 0-.17-.15-.3-.34-.3-.2 0-.45.1-.72.1-.92 0-1.44-.44-1.44-1.28 0-.84.6-1.4 1.5-1.4 1.1 0 1.97.86 1.97 2.15 0 1.48-1.07 3.04-2.78 3.86M399.35 430.46c0 4.26-1.56 8.52-5.6 8.52-4.24 0-5.6-4.6-5.6-8.67 0-4.37 1.7-8.4 5.7-8.4 3.24 0 5.5 3.48 5.5 8.56m-2.38.12c0-5.15-1.1-8.05-3.27-8.05-2.06 0-3.17 2.93-3.17 7.96 0 5 1.1 7.84 3.22 7.84 2.1 0 3.22-2.85 3.22-7.76M402 442.13l-.25-.47c1.37-.92 2.06-1.83 2.06-2.65 0-.17-.14-.3-.34-.3s-.44.1-.72.1c-.9 0-1.43-.44-1.43-1.28 0-.84.6-1.4 1.5-1.4 1.1 0 1.98.86 1.98 2.15 0 1.48-1.07 3.04-2.78 3.86M417.58 428.03v.4c-1.16.07-1.93.57-5.57 3.8l.93 2.2c.96 2.27 1.53 3.2 2 3.2.37 0 .67-.28 1.12-1.05l.37-.64.37.27c-1.15 2.1-1.77 2.7-2.76 2.7-.72 0-1.2-.46-2-2.02-.45-.87-1.1-2.4-1.5-3.5l-.98.8-1.2 4.46h-1.85l3.5-13.1c.32-1.17.4-1.74.45-2.17-.05-.44-.42-.6-1.26-.6h-.46v-.4c1.46-.16 2.43-.33 3.9-.66l.14.16-2.98 11.3 1.07-.82c2.33-1.78 3.54-2.97 3.54-3.47 0-.27-.28-.44-.9-.44h-.35v-.4h4.43"/><path d="M364.67 468.88v-26h47.57v26z" stroke="#000" stroke-opacity="0" fill="#fff" fill-opacity="0"/><use xlink:href="#c" transform="matrix(6.123233995736766e-17,-1,1,6.123233995736766e-17,369.6745265002003,463.8781311865429) translate(-1.2592592592592595 23.444444444444443)"/><path d="M498.85 419v-26h50.38v26z" stroke="#000" stroke-opacity="0" fill="#fff" fill-opacity="0"/><use xlink:href="#c" transform="matrix(6.123233995736766e-17,-1,1,6.123233995736766e-17,503.8528344521268,413.99999996850397) translate(-1.2592592592592595 24.944444444444443)"/><path d="M496.15 417.33h63.15v25.4h-63.15z" fill="#fff" fill-opacity="0"/><path d="M505.6 420.94l.4 2c2.47-3.75 3.76-5 5.3-5 .85 0 1.44.5 1.44 1.3 0 .72-.5 1.25-1.2 1.25-.66 0-.97-.6-1.8-.6-.64 0-1.9 1.53-3.45 4.23 0 .25.06.74.27 1.58l1.13 4.7c.24.98.56 1.44 1.05 1.44.45 0 .84-.35 1.64-1.4.3-.42.45-.63.73-.98l.52.3c-2.03 3.17-2.94 4-4.27 4-1.12 0-1.65-.62-2.07-2.38l-1-4.17-3.1 4.18c-1.53 2.07-2.23 2.4-3.32 2.4-1.08 0-1.75-.57-1.75-1.5 0-.7.5-1.25 1.2-1.25.3 0 .66.14 1.1.4.37.2.72.3.93.3.38 0 1.05-.66 1.78-1.7l2.88-4.08-.98-4.34c-.5-2.1-.74-2.37-1.62-2.37-.28 0-.7.07-1.36.24l-.63.18-.1-.56.38-.15c2.14-.78 3.3-1.02 4.1-1.02.88 0 1.3.63 1.8 3M519.18 423.8c0 .7-.57 1.26-1.22 1.26-.72 0-1.2-.52-1.2-1.3s.5-1.33 1.18-1.33c.67 0 1.24.65 1.24 1.37m-1.04 12l.32.28c-1.36 2.1-2.16 2.83-3.4 2.83-.8 0-1.2-.44-1.2-1.35 0-.5.16-1.37.53-2.75l1.18-4.4c.13-.43.23-.88.23-1.08 0-.5-.24-.57-1.58-.6v-.4c.97-.06 1.46-.14 3.97-.6l.08.06-2.32 8.5c-.13.42-.25.75-.25 1.1 0 .24.16.36.35.36.43 0 1.02-.52 2.1-1.93M521.58 442.13l-.25-.47c1.36-.92 2.06-1.83 2.06-2.65 0-.17-.16-.3-.36-.3-.2 0-.44.1-.72.1-.9 0-1.43-.44-1.43-1.28 0-.84.58-1.4 1.47-1.4 1.12 0 1.98.86 1.98 2.15 0 1.48-1.06 3.04-2.77 3.86M535.5 438.64h-6.83v-.37c1.83-.1 2.35-.62 2.35-2v-11.1c0-.85-.22-1.23-.74-1.23-.25 0-.67.13-1.12.3l-.67.25v-.36l4.43-2.25.22.06v14.8c0 1.06.5 1.5 2.35 1.5v.38M540.2 442.13l-.26-.47c1.36-.92 2.06-1.83 2.06-2.65 0-.17-.15-.3-.35-.3-.2 0-.45.1-.72.1-.92 0-1.44-.44-1.44-1.28 0-.84.6-1.4 1.48-1.4 1.1 0 1.98.86 1.98 2.15 0 1.48-1.06 3.04-2.77 3.86M555.77 428.03v.4c-1.16.07-1.93.57-5.57 3.8l.9 2.2c.98 2.27 1.55 3.2 2.02 3.2.37 0 .67-.28 1.1-1.05.14-.2.26-.42.4-.64l.36.27c-1.14 2.1-1.76 2.7-2.75 2.7-.72 0-1.22-.46-2-2.02-.46-.87-1.1-2.4-1.5-3.5l-1 .8-1.18 4.46h-1.85l3.5-13.1c.3-1.17.4-1.74.44-2.17-.05-.44-.43-.6-1.27-.6h-.44v-.4c1.46-.16 2.42-.33 3.9-.66l.13.16-2.97 11.3 1.06-.82c2.33-1.78 3.54-2.97 3.54-3.47 0-.27-.3-.44-.92-.44h-.34v-.4h4.43"/><path d="M655 291.5h26.26" stroke="#000" fill="none"/><path d="M655.02 292h-.5v-1h.5zM696.03 291.5l-14.27 4.63v-9.27z"/><path d="M697.65 291.5l-16.4 5.32v-10.65zm-15.4 3.94l12.16-3.94-12.14-3.95z"/><g><path d="M714.52 423.8v-26h50.38v26z" stroke="#000" stroke-opacity="0" fill="#fff" fill-opacity="0"/></g><g><use xlink:href="#c" transform="matrix(6.123233995736766e-17,-1,1,6.123233995736766e-17,719.5227522102758,418.80957885724615) translate(-1.2592592592592595 24.944444444444443)"/></g><path d="M713.58 416.5h57.68v27.03h-57.68z" fill="#fff" fill-opacity="0"/><path d="M723.02 420.12l.42 2c2.46-3.75 3.75-5 5.3-5 .84 0 1.43.52 1.43 1.3 0 .72-.5 1.25-1.2 1.25-.65 0-.97-.6-1.8-.6-.64 0-1.9 1.55-3.45 4.24 0 .26.08.75.3 1.6l1.1 4.7c.25.97.57 1.42 1.06 1.42.45 0 .84-.35 1.64-1.4.32-.42.46-.63.74-.98l.53.3c-2.05 3.17-2.96 4-4.3 4-1.1 0-1.64-.62-2.06-2.37l-1-4.17-3.1 4.17c-1.54 2.06-2.24 2.38-3.32 2.38-1.1 0-1.76-.56-1.76-1.47 0-.7.5-1.26 1.2-1.26.3 0 .66.14 1.12.38.35.2.7.32.9.32.4 0 1.06-.67 1.8-1.72l2.87-4.06-.98-4.35c-.5-2.1-.74-2.4-1.62-2.4-.28 0-.7.08-1.36.25l-.64.18-.1-.56.38-.14c2.14-.77 3.3-1.02 4.1-1.02.87 0 1.3.64 1.78 3.02M736.6 422.98c0 .7-.56 1.26-1.2 1.26-.72 0-1.2-.52-1.2-1.3s.5-1.32 1.17-1.32c.67 0 1.24.64 1.24 1.36m-1.03 12l.32.3c-1.37 2.07-2.17 2.8-3.4 2.8-.82 0-1.22-.43-1.22-1.35 0-.5.17-1.36.55-2.75l1.2-4.4c.1-.43.2-.88.2-1.08 0-.5-.24-.57-1.58-.6v-.4c.97-.06 1.46-.14 3.97-.6l.1.07-2.33 8.5c-.14.42-.26.74-.26 1.1 0 .23.15.36.35.36.4 0 1-.52 2.07-1.94M739 441.3l-.24-.46c1.37-.9 2.06-1.83 2.06-2.65 0-.18-.15-.33-.35-.33-.2 0-.44.1-.72.1-.9 0-1.43-.42-1.43-1.27 0-.84.6-1.4 1.48-1.4 1.12 0 2 .86 2 2.15 0 1.48-1.08 3.04-2.8 3.86"/><path d="M750.1 423c0 .67-.6 1.24-1.25 1.24-.75 0-1.34-.52-1.34-1.3 0-.73.63-1.27 1.32-1.27.67 0 1.27.64 1.27 1.33m-.83 3.97l-2.58 10.16c-1.02 4-2.5 5.82-4.64 5.82-1.14 0-1.96-.62-1.96-1.5 0-.6.45-1.1 1.02-1.1.67 0 .96.4.96.9 0 .56-.3.48-.3.86 0 .18.15.3.45.3 1 0 1.56-1.1 2.4-4.5l1.8-7.24c.3-1.22.4-1.74.4-1.98 0-.55-.3-.77-1.2-.77h-.65v-.4c.8-.04 2.1-.24 4.2-.6M752.14 441.3l-.25-.46c1.36-.9 2.05-1.83 2.05-2.65 0-.18-.15-.33-.35-.33-.2 0-.44.1-.7.1-.93 0-1.45-.42-1.45-1.27 0-.84.6-1.4 1.5-1.4 1.1 0 1.97.86 1.97 2.15 0 1.48-1.07 3.04-2.78 3.86M767.73 427.2v.4c-1.17.1-1.94.58-5.58 3.83l.92 2.18c.96 2.3 1.53 3.2 2 3.2.38 0 .67-.27 1.12-1.04.1-.2.24-.42.36-.64l.37.27c-1.14 2.07-1.76 2.7-2.75 2.7-.7 0-1.2-.48-2-2.04-.45-.87-1.1-2.4-1.5-3.5l-.98.8-1.2 4.46h-1.85l3.5-13.08c.32-1.2.4-1.76.44-2.18-.06-.45-.43-.6-1.27-.6h-.45v-.4c1.46-.17 2.43-.34 3.9-.66l.14.15-2.97 11.3 1.06-.82c2.34-1.8 3.56-2.98 3.56-3.47 0-.28-.3-.45-.92-.45h-.35v-.4h4.43"/><g><path d="M948.07 468.88v-26h38.45v26z" stroke="#000" stroke-opacity="0" fill="#fff" fill-opacity="0"/></g><g><use xlink:href="#c" transform="matrix(6.123233995736766e-17,-1,1,6.123233995736766e-17,953.0656754052768,463.8781311865429) translate(-1.2592592592592595 18.944444444444443)"/></g><path d="M940.9 417.33h60.4v25.4h-60.4z" fill="#fff" fill-opacity="0"/><path d="M950.34 420.94l.42 2c2.45-3.75 3.75-5 5.3-5 .83 0 1.43.5 1.43 1.3 0 .72-.5 1.25-1.2 1.25-.67 0-.98-.6-1.83-.6-.63 0-1.9 1.53-3.43 4.23 0 .25.07.74.28 1.58l1.12 4.7c.25.98.56 1.44 1.05 1.44.45 0 .83-.35 1.64-1.4.32-.42.46-.63.74-.98l.52.3c-2.03 3.17-2.94 4-4.27 4-1.12 0-1.65-.62-2.07-2.38l-1.02-4.17-3.08 4.18c-1.54 2.07-2.24 2.4-3.33 2.4-1.08 0-1.75-.57-1.75-1.5 0-.7.5-1.25 1.2-1.25.3 0 .66.14 1.1.4.36.2.7.3.92.3.4 0 1.05-.66 1.8-1.7l2.86-4.08-.98-4.34c-.5-2.1-.73-2.37-1.6-2.37-.3 0-.7.07-1.38.24l-.63.18-.1-.56.38-.15c2.14-.78 3.3-1.02 4.1-1.02.88 0 1.3.63 1.8 3M963.92 423.8c0 .7-.57 1.26-1.2 1.26-.73 0-1.2-.52-1.2-1.3s.5-1.33 1.17-1.33c.65 0 1.22.65 1.22 1.37m-1.04 12l.33.28c-1.36 2.1-2.15 2.83-3.4 2.83-.8 0-1.2-.44-1.2-1.35 0-.5.17-1.37.54-2.75l1.2-4.4c.12-.43.2-.88.2-1.08 0-.5-.23-.57-1.57-.6v-.4c.96-.06 1.46-.14 3.96-.6l.1.06-2.33 8.5c-.12.42-.24.75-.24 1.1 0 .24.14.36.34.36.42 0 1.02-.52 2.08-1.93M966.33 442.13l-.25-.47c1.36-.92 2.06-1.83 2.06-2.65 0-.17-.15-.3-.35-.3-.2 0-.46.1-.73.1-.92 0-1.44-.44-1.44-1.28 0-.84.6-1.4 1.5-1.4 1.1 0 1.97.86 1.97 2.15 0 1.48-1.06 3.04-2.77 3.86M979.56 427.7l-.5 3.45h-.4c-.24-2.05-1-2.87-2.2-2.87-.87 0-1.46.5-1.46 1.4 0 .68.37 1.4 1.34 2.54 1.24 1.44 1.68 2.4 1.68 3.37 0 2.05-1.5 3.3-3.57 3.3-.42 0-.8-.02-1.36-.24-.48-.2-.83-.22-1.1-.22-.27 0-.54.12-.72.52h-.4l.5-3.94h.4c.34 2.35 1.2 3.37 2.48 3.37 1.16 0 1.88-.7 1.88-1.92 0-.8-.42-1.63-1.4-2.85-1.05-1.34-1.55-2.45-1.55-3.24 0-1.65 1.15-2.7 3-2.7.4 0 .76.08 1.38.26.47.15.7.17.9.17.36 0 .53-.1.73-.44h.36M982.18 442.13l-.24-.47c1.36-.92 2.05-1.83 2.05-2.65 0-.17-.16-.3-.35-.3-.2 0-.45.1-.72.1-.92 0-1.44-.44-1.44-1.28 0-.84.58-1.4 1.48-1.4 1.1 0 1.98.86 1.98 2.15 0 1.48-1.07 3.04-2.78 3.86M997.77 428.03v.4c-1.17.07-1.93.57-5.58 3.8l.9 2.2c.98 2.27 1.55 3.2 2.02 3.2.37 0 .67-.28 1.1-1.05.14-.2.26-.42.38-.64l.38.27c-1.14 2.1-1.76 2.7-2.75 2.7-.72 0-1.22-.46-2-2.02-.46-.87-1.1-2.4-1.5-3.5l-1 .8-1.18 4.46h-1.86l3.5-13.1c.3-1.17.38-1.74.43-2.17-.05-.44-.42-.6-1.26-.6h-.45v-.4c1.46-.16 2.43-.33 3.9-.66l.14.16-2.97 11.3 1.05-.82c2.33-1.78 3.55-2.97 3.55-3.47 0-.27-.3-.44-.92-.44h-.35v-.4h4.44"/><path d="M836.28 273.16h36.37v36.67h-36.37z" stroke="#000" stroke-opacity="0" fill="#fff" fill-opacity="0"/><g><use xlink:href="#c" transform="matrix(1,0,0,1,841.2772793149474,278.16272965879267) translate(4.2407407407407405 17.944444444444443)"/></g><path d="M838.38 425.12h36.38v36.67h-36.38z" stroke="#000" stroke-opacity="0" fill="#fff" fill-opacity="0"/><g><use xlink:href="#c" transform="matrix(1,0,0,1,843.3842933107227,430.12109380887233) translate(4.2407407407407405 17.944444444444443)"/></g><defs><path d="M233-177c-1 41-23 64-60 70L243 0h-38l-65-103H63V0H30v-248c88 3 205-21 203 71zM63-129c60-2 137 13 137-47 0-61-80-42-137-45v92" id="y"/><path d="M190 0L58-211 59 0H30v-248h39L202-35l-2-213h31V0h-41" id="z"/><g id="a"><use transform="matrix(0.05,0,0,0.05,0,0)" xlink:href="#y"/><use transform="matrix(0.05,0,0,0.05,12.950000000000001,0)" xlink:href="#z"/><use transform="matrix(0.05,0,0,0.05,25.900000000000002,0)" xlink:href="#z"/></g><path d="M212-179c-10-28-35-45-73-45-59 0-87 40-87 99 0 60 29 101 89 101 43 0 62-24 78-52l27 14C228-24 195 4 139 4 59 4 22-46 18-125c-6-104 99-153 187-111 19 9 31 26 39 46" id="A"/><path d="M100-194c63 0 86 42 84 106H49c0 40 14 67 53 68 26 1 43-12 49-29l28 8c-11 28-37 45-77 45C44 4 14-33 15-96c1-61 26-98 85-98zm52 81c6-60-76-77-97-28-3 7-6 17-6 28h103" id="B"/><path d="M24 0v-261h32V0H24" id="C"/><g id="b"><use transform="matrix(0.05,0,0,0.05,0,0)" xlink:href="#A"/><use transform="matrix(0.05,0,0,0.05,12.950000000000001,0)" xlink:href="#B"/><use transform="matrix(0.05,0,0,0.05,22.950000000000003,0)" xlink:href="#C"/><use transform="matrix(0.05,0,0,0.05,26.900000000000002,0)" xlink:href="#C"/></g><path d="M33 0v-38h34V0H33" id="D"/><g id="c"><use transform="matrix(0.06172839506172839,0,0,0.06172839506172839,0,0)" xlink:href="#D"/><use transform="matrix(0.06172839506172839,0,0,0.06172839506172839,6.172839506172839,0)" xlink:href="#D"/><use transform="matrix(0.06172839506172839,0,0,0.06172839506172839,12.345679012345679,0)" xlink:href="#D"/></g><path d="M194-120c59 52 2 134-86 124-53-6-90-18-98-63l31-7c8 30 29 43 70 43 46 0 84-17 71-62-32-43-135-20-137-98-3-89 178-90 191-16l-30 9c-8-48-127-53-127 5 0 53 81 35 115 65" id="E"/><path d="M111-194c62-3 86 47 72 106H45c-7 38 6 69 45 68 27-1 43-14 53-32l24 11C152-15 129 4 87 4 38 3 12-23 12-71c0-70 32-119 99-123zm44 81c14-66-71-72-95-28-4 8-8 17-11 28h106" id="F"/><path d="M133-28C103 26-5 8 13-77c13-62 24-115 90-117 29-1 46 15 56 35 2-12 6-24 8-34h31L144 75h-31zM45-64c-2 27 10 43 35 43 54-1 69-50 69-103 0-29-15-46-42-46-53-1-58 58-62 106" id="G"/><path d="M67 3c-93-2-31-127-26-193h32L48-50c-3 39 53 32 70 12 30-34 30-101 43-152h32L157 0h-30c1-10 6-24 4-33-14 20-29 37-64 36" id="H"/><path d="M67-158c22-48 132-52 116 29L158 0h-32l25-140c3-38-53-32-70-12C52-117 51-52 38 0H6l36-190h30" id="I"/><path d="M44-68c0 29 11 47 38 47 30 0 42-19 51-41l28 9C148-21 126 4 82 4 31 4 10-29 12-85c3-77 74-140 146-93 12 8 15 23 18 40l-31 5c-1-22-13-36-36-36-52 0-65 49-65 101" id="J"/><g id="e"><use transform="matrix(0.03703703703703704,0,0,0.03703703703703704,0,0)" xlink:href="#E"/><use transform="matrix(0.03703703703703704,0,0,0.03703703703703704,8.88888888888889,0)" xlink:href="#F"/><use transform="matrix(0.03703703703703704,0,0,0.03703703703703704,16.296296296296298,0)" xlink:href="#G"/><use transform="matrix(0.03703703703703704,0,0,0.03703703703703704,23.703703703703706,0)" xlink:href="#H"/><use transform="matrix(0.03703703703703704,0,0,0.03703703703703704,31.111111111111114,0)" xlink:href="#F"/><use transform="matrix(0.03703703703703704,0,0,0.03703703703703704,38.51851851851851,0)" xlink:href="#I"/><use transform="matrix(0.03703703703703704,0,0,0.03703703703703704,45.925925925925924,0)" xlink:href="#J"/><use transform="matrix(0.03703703703703704,0,0,0.03703703703703704,52.59259259259259,0)" xlink:href="#F"/></g><path d="M248-111c6-24 9-61-24-58-72 9-57 108-77 169h-31l26-142c3-37-50-30-64-10C52-115 50-51 37 0H6l36-190h30c-1 10-6 24-4 32 13-43 101-52 105 5 13-22 29-41 61-41 90 0 28 129 23 194h-31" id="K"/><path d="M68-162c25-46 127-43 121 31C183-60 169 1 98 4 69 5 53-11 43-31L36 0H5l52-261h31zm88 36c2-27-9-43-34-43-55 0-70 51-70 103 0 29 15 45 43 46 52 0 58-58 61-106" id="L"/><path d="M66-151c12-25 30-51 66-40l-6 26C45-176 58-65 38 0H6l36-190h30" id="M"/><g id="f"><use transform="matrix(0.03703703703703704,0,0,0.03703703703703704,0,0)" xlink:href="#I"/><use transform="matrix(0.03703703703703704,0,0,0.03703703703703704,7.407407407407408,0)" xlink:href="#H"/><use transform="matrix(0.03703703703703704,0,0,0.03703703703703704,14.814814814814817,0)" xlink:href="#K"/><use transform="matrix(0.03703703703703704,0,0,0.03703703703703704,25.888888888888893,0)" xlink:href="#L"/><use transform="matrix(0.03703703703703704,0,0,0.03703703703703704,33.296296296296305,0)" xlink:href="#F"/><use transform="matrix(0.03703703703703704,0,0,0.03703703703703704,40.70370370370371,0)" xlink:href="#M"/></g><path d="M17-49c1-102 45-165 103-212h30C92-210 49-145 49-46 49 4 63 43 85 75H54C30 43 18 2 17-49" id="N"/><path d="M16-82c0-90 25-169 113-169 48 0 68 33 68 82C197-79 170 4 84 4 37 4 16-31 16-82zm30 5c0 32 11 55 40 55 69 0 76-79 80-149 2-32-10-55-39-55-69 0-81 81-81 149" id="O"/><g id="g"><use transform="matrix(0.03703703703703704,0,0,0.03703703703703704,0,0)" xlink:href="#N"/><use transform="matrix(0.03703703703703704,0,0,0.03703703703703704,4.407407407407408,0)" xlink:href="#O"/></g><path d="M51-54c-9 22 5 41 31 30L79-1C43 14 10-4 19-52l22-115H19l5-23h22l19-43h21l-9 43h35l-4 23H73" id="P"/><path d="M30-147c31-64 166-65 159 27C183-49 158 1 86 4 9 8 1-88 30-147zM88-20c53 0 68-48 68-100 0-31-11-51-44-50-52 1-68 46-68 97 0 32 13 53 44 53" id="Q"/><g id="h"><use transform="matrix(0.03703703703703704,0,0,0.03703703703703704,0,0)" xlink:href="#P"/><use transform="matrix(0.03703703703703704,0,0,0.03703703703703704,3.703703703703704,0)" xlink:href="#Q"/></g><path d="M55-144c13 50 104 24 104 88C159 21 15 23 1-39l26-10c6 40 102 42 102-4-13-50-104-23-104-87 0-71 143-71 148-8l-29 4c-5-35-85-37-89 0" id="R"/><path d="M98-137C97-35 54 29-4 75h-31C23 23 67-41 67-140c0-50-15-89-37-121h31c24 32 36 73 37 124" id="S"/><g id="i"><use transform="matrix(0.03703703703703704,0,0,0.03703703703703704,0,0)" xlink:href="#R"/><use transform="matrix(0.03703703703703704,0,0,0.03703703703703704,6.666666666666668,0)" xlink:href="#S"/></g><path d="M87-220l-18 92h140l-5 28H64L45 0H11l48-248h178l-5 28H87" id="T"/><path d="M165-48c-4 18 1 34 23 27l-3 20c-29 8-62 0-52-35h-2C116-14 99 4 63 4 30 4 8-16 8-49c0-68 71-67 138-67 10-26 0-56-31-54-26 1-42 9-47 31l-32-5c8-67 160-71 144 15-5 28-9 54-15 81zM42-50c3 52 80 24 89-6 7-12 7-24 11-38-47 1-103-4-100 44" id="U"/><g id="j"><use transform="matrix(0.03703703703703704,0,0,0.03703703703703704,0,0)" xlink:href="#T"/><use transform="matrix(0.03703703703703704,0,0,0.03703703703703704,8.111111111111112,0)" xlink:href="#F"/><use transform="matrix(0.03703703703703704,0,0,0.03703703703703704,15.51851851851852,0)" xlink:href="#U"/><use transform="matrix(0.03703703703703704,0,0,0.03703703703703704,22.925925925925927,0)" xlink:href="#P"/><use transform="matrix(0.03703703703703704,0,0,0.03703703703703704,26.629629629629633,0)" xlink:href="#H"/><use transform="matrix(0.03703703703703704,0,0,0.03703703703703704,34.03703703703704,0)" xlink:href="#M"/><use transform="matrix(0.03703703703703704,0,0,0.03703703703703704,38.44444444444444,0)" xlink:href="#F"/></g><path d="M76-167L44 0H12l33-167H18l4-23h27c3-47 25-81 82-69l-4 24c-35-8-44 15-46 45h37l-5 23H76" id="V"/><g id="k"><use transform="matrix(0.03703703703703704,0,0,0.03703703703703704,0,0)" xlink:href="#V"/><use transform="matrix(0.03703703703703704,0,0,0.03703703703703704,3.703703703703704,0)" xlink:href="#S"/></g><path d="M44-154l7-36h35l-8 36H44zM14 0l7-36h35L49 0H14" id="W"/><g id="l"><use transform="matrix(0.03703703703703704,0,0,0.03703703703703704,0,0)" xlink:href="#K"/><use transform="matrix(0.03703703703703704,0,0,0.03703703703703704,11.074074074074076,0)" xlink:href="#W"/></g><path d="M6 0l50-261h32L37 0H6" id="X"/><g id="m"><use transform="matrix(0.03703703703703704,0,0,0.03703703703703704,0,0)" xlink:href="#P"/><use transform="matrix(0.03703703703703704,0,0,0.03703703703703704,3.703703703703704,0)" xlink:href="#Q"/><use transform="matrix(0.03703703703703704,0,0,0.03703703703703704,11.111111111111112,0)" xlink:href="#P"/><use transform="matrix(0.03703703703703704,0,0,0.03703703703703704,14.814814814814817,0)" xlink:href="#U"/><use transform="matrix(0.03703703703703704,0,0,0.03703703703703704,22.222222222222225,0)" xlink:href="#X"/></g><g id="n"><use transform="matrix(0.03703703703703704,0,0,0.03703703703703704,0,0)" xlink:href="#I"/><use transform="matrix(0.03703703703703704,0,0,0.03703703703703704,7.407407407407408,0)" xlink:href="#H"/><use transform="matrix(0.03703703703703704,0,0,0.03703703703703704,14.814814814814817,0)" xlink:href="#K"/><use transform="matrix(0.03703703703703704,0,0,0.03703703703703704,25.888888888888893,0)" xlink:href="#L"/><use transform="matrix(0.03703703703703704,0,0,0.03703703703703704,33.296296296296305,0)" xlink:href="#F"/><use transform="matrix(0.03703703703703704,0,0,0.03703703703703704,40.70370370370371,0)" xlink:href="#M"/></g><g id="o"><use transform="matrix(0.03703703703703704,0,0,0.03703703703703704,0,0)" xlink:href="#Q"/><use transform="matrix(0.03703703703703704,0,0,0.03703703703703704,7.407407407407408,0)" xlink:href="#V"/></g><path d="M50-231l6-30h32l-6 30H50zM6 0l37-190h31L37 0H6" id="Y"/><g id="p"><use transform="matrix(0.03703703703703704,0,0,0.03703703703703704,0,0)" xlink:href="#Y"/><use transform="matrix(0.03703703703703704,0,0,0.03703703703703704,2.9259259259259265,0)" xlink:href="#I"/><use transform="matrix(0.03703703703703704,0,0,0.03703703703703704,10.333333333333334,0)" xlink:href="#R"/><use transform="matrix(0.03703703703703704,0,0,0.03703703703703704,17.000000000000004,0)" xlink:href="#P"/><use transform="matrix(0.03703703703703704,0,0,0.03703703703703704,20.70370370370371,0)" xlink:href="#U"/><use transform="matrix(0.03703703703703704,0,0,0.03703703703703704,28.111111111111118,0)" xlink:href="#I"/><use transform="matrix(0.03703703703703704,0,0,0.03703703703703704,35.518518518518526,0)" xlink:href="#J"/><use transform="matrix(0.03703703703703704,0,0,0.03703703703703704,42.18518518518519,0)" xlink:href="#F"/><use transform="matrix(0.03703703703703704,0,0,0.03703703703703704,49.5925925925926,0)" xlink:href="#R"/></g><g id="q"><use transform="matrix(0.03703703703703704,0,0,0.03703703703703704,0,0)" xlink:href="#R"/><use transform="matrix(0.03703703703703704,0,0,0.03703703703703704,6.666666666666668,0)" xlink:href="#W"/></g><g id="r"><use transform="matrix(0.03703703703703704,0,0,0.03703703703703704,0,0)" xlink:href="#R"/><use transform="matrix(0.03703703703703704,0,0,0.03703703703703704,6.666666666666668,0)" xlink:href="#F"/><use transform="matrix(0.03703703703703704,0,0,0.03703703703703704,14.074074074074076,0)" xlink:href="#G"/><use transform="matrix(0.03703703703703704,0,0,0.03703703703703704,21.481481481481485,0)" xlink:href="#H"/><use transform="matrix(0.03703703703703704,0,0,0.03703703703703704,28.888888888888893,0)" xlink:href="#F"/><use transform="matrix(0.03703703703703704,0,0,0.03703703703703704,36.296296296296305,0)" xlink:href="#I"/><use transform="matrix(0.03703703703703704,0,0,0.03703703703703704,43.70370370370371,0)" xlink:href="#J"/><use transform="matrix(0.03703703703703704,0,0,0.03703703703703704,50.370370370370374,0)" xlink:href="#F"/></g><path d="M103-194c29 0 47 14 56 36 2-11 5-23 8-32h30L160-5C157 61 82 97 21 62 9 55 4 45 1 30l28-7c7 42 83 31 92-3 4-16 9-38 13-55-13 20-29 36-62 36-40 0-60-25-60-64 0-71 23-131 91-131zm4 24c-53 0-58 54-61 104-2 27 10 44 36 44 49 0 65-50 67-102 1-29-15-46-42-46" id="Z"/><path d="M67-158c15-20 31-36 64-36 94 0 33 127 27 194h-32l25-140c3-38-53-32-70-12C52-117 51-51 37 0H6l51-261h31" id="aa"/><g id="s"><use transform="matrix(0.03703703703703704,0,0,0.03703703703703704,0,0)" xlink:href="#X"/><use transform="matrix(0.03703703703703704,0,0,0.03703703703703704,2.9259259259259265,0)" xlink:href="#F"/><use transform="matrix(0.03703703703703704,0,0,0.03703703703703704,10.333333333333334,0)" xlink:href="#I"/><use transform="matrix(0.03703703703703704,0,0,0.03703703703703704,17.740740740740744,0)" xlink:href="#Z"/><use transform="matrix(0.03703703703703704,0,0,0.03703703703703704,25.148148148148152,0)" xlink:href="#P"/><use transform="matrix(0.03703703703703704,0,0,0.03703703703703704,28.851851851851855,0)" xlink:href="#aa"/></g><g id="t"><use transform="matrix(0.03703703703703704,0,0,0.03703703703703704,0,0)" xlink:href="#V"/><use transform="matrix(0.03703703703703704,0,0,0.03703703703703704,3.703703703703704,0)" xlink:href="#W"/></g><g id="u"><use transform="matrix(0.03703703703703704,0,0,0.03703703703703704,0,0)" xlink:href="#V"/><use transform="matrix(0.03703703703703704,0,0,0.03703703703703704,3.703703703703704,0)" xlink:href="#F"/><use transform="matrix(0.03703703703703704,0,0,0.03703703703703704,11.111111111111112,0)" xlink:href="#U"/><use transform="matrix(0.03703703703703704,0,0,0.03703703703703704,18.51851851851852,0)" xlink:href="#P"/><use transform="matrix(0.03703703703703704,0,0,0.03703703703703704,22.22222222222222,0)" xlink:href="#H"/><use transform="matrix(0.03703703703703704,0,0,0.03703703703703704,29.62962962962963,0)" xlink:href="#M"/><use transform="matrix(0.03703703703703704,0,0,0.03703703703703704,34.03703703703704,0)" xlink:href="#F"/><use transform="matrix(0.03703703703703704,0,0,0.03703703703703704,41.44444444444444,0)" xlink:href="#R"/></g><path d="M14 0l48-248h34L48 0H14" id="ab"/><g id="w"><use transform="matrix(0.03703703703703704,0,0,0.03703703703703704,0,0)" xlink:href="#ab"/><use transform="matrix(0.03703703703703704,0,0,0.03703703703703704,3.703703703703704,0)" xlink:href="#I"/><use transform="matrix(0.03703703703703704,0,0,0.03703703703703704,11.111111111111112,0)" xlink:href="#R"/><use transform="matrix(0.03703703703703704,0,0,0.03703703703703704,17.77777777777778,0)" xlink:href="#P"/><use transform="matrix(0.03703703703703704,0,0,0.03703703703703704,21.48148148148148,0)" xlink:href="#U"/><use transform="matrix(0.03703703703703704,0,0,0.03703703703703704,28.88888888888889,0)" xlink:href="#I"/><use transform="matrix(0.03703703703703704,0,0,0.03703703703703704,36.2962962962963,0)" xlink:href="#J"/><use transform="matrix(0.03703703703703704,0,0,0.03703703703703704,42.96296296296296,0)" xlink:href="#F"/></g><g id="x"><use transform="matrix(0.03703703703703704,0,0,0.03703703703703704,0,0)" xlink:href="#K"/><use transform="matrix(0.03703703703703704,0,0,0.03703703703703704,11.074074074074076,0)" xlink:href="#S"/></g></defs></g></svg>